<svg xmlns="http://www.w3.org/2000/svg" viewBox="0 0 59.49 60" xmlns:v="https://vecta.io/nano"><style><![CDATA[.G{stroke:#197419}.H{stroke-linejoin:round}.I{stroke-width:2}.J{stroke-linecap:round}]]></style><circle cx="30.51" cy="30.51" r="28.49" transform="matrix(.211325 -.977416 .977416 .211325 -5.76 53.88)" fill="#edf4ed"/><path d="M5.07 10.16h35.6v44.77H5.07z" fill="#fff"/><path d="M44.75 22.37V8.12a2 2 0 0 0-2-2H3a2 2 0 0 0-2 2V57a2 2 0 0 0 2 2h39.72a2 2 0 0 0 2-2V38.65l-4.07 4.07v12.2H5.07V10.16h35.6v16.28z" fill="#bad5ba"/><g fill="none" class="G H I J"><path d="M44.75,38.65V57a2,2,0,0,1-2,2H3a2,2,0,0,1-2-2V8.12a2,2,0,0,1,2-2h7.12"/><path d="M34.58 6.1h8.14a2 2 0 0 1 2 2v14.28m-4.04 20.34v12.2H5.07V10.16h5.1"/><path d="M34.58 10.16h6.1v16.28"/></g><path d="M29.5 5.07h-3a4.07 4.07 0 0 0-8.14 0h-3.1a3.06 3.06 0 0 0-3.06 3v3.06h20.35v-3a3 3 0 0 0-3.05-3.05z" fill="#fff" class="G H I"/><path d="M22.37 4.05V6.1" fill="none" class="G H I J"/><path d="M57.3 18.05a3.27 3.27 0 0 1 1.17 2.64l-20.8 20.8a8.83 8.83 0 0 1-6.15 2.26 8.83 8.83 0 0 1 2.26-6.15l20.8-20.8a3.32 3.32 0 0 1 2.64 1.2z" fill="#bad5ba" class="G H I"/><path d="M52.4 18.9l3.88 3.9M33.56 37.63l4.07 4.07m-17.3-20.35h13.23m-16.28-1.02l-4.07 5.1-2.03-3.05m9.15 8.12h13.23m-13.23-5.08h11.2m-11.2 9.16H30.5m-10.17 5.1h8.14m-8.14 4.07h6.1M17.28 29.5l-4.07 5.1-2.03-3.05m6.1 7.1l-4.07 5.1-2.03-3.06" fill="none" class="J G H I"/></svg>