<svg xmlns="http://www.w3.org/2000/svg" xmlns:xlink="http://www.w3.org/1999/xlink" width="370" height="293" fill="none" xmlns:v="https://vecta.io/nano"><style><![CDATA[.B{fill:#fea600}.C{fill:#fff}.D{fill:#ffc910}.E{fill:#fed601}.F{fill:#febe00}.G{fill:#b43f47}.H{fill:#e9d6b8}.I{fill:#3ecb77}]]></style><path d="M167.684 289.683c-52.795-7.566-98.465-33.164-128.12-61.03-29.895-28.324-43.753-58.894-38.458-87.217 5.36-28.608 28.566-51.851 59.375-73.132 31.006-20.801 69.594-39.64 110.34-48.449C250.287.187 322.801 45.605 338.097 137.838c15.492 91.731-62.578 170.03-170.413 151.845z" fill="#e9f2e9"/><path d="M219.456 179.004c-47.739-1.481-25.073-24.11-58.183-40.258-12.851-6.259-22.888 6.334-27.851 11.333l-5.037 2.074c-5.185 5.296-2.444 14.074 2.815 19.296l8.148 8c9.407 7.518 4.852 20.184 10.925 26.147 6.815 6.703 17.777 6.555 24.703-.222.222.222.407.444.63.666 6.888 6.778 39.48 11.518 47.146 5.333 14.703-11.703 5.074-32.11-3.296-32.369z" fill="#163f59"/><g fill="#e2c59c"><path d="M155.125 232.298s-.371 3-14.852 1.593c-14.481-1.37-35.369-6.963-35.369-6.963l33.666.037c0 .037 12.888.667 16.555 5.333z"/><path d="M116.163 229.113c-6.888-.444-10.073 2.815-12.888 3.704s-5.667 2.37-5.63 2.333c1.704-2.852 3.963-2.778 5.148-3.666s.852-.445-1.592-.778c-1.407-.185-4 2.111-5.852 3.37-1.63 1.074-2.593 1.111-2.593 1.111s1.963-2.37 4.37-4.222c2.889-2.222 6.444-4.037 7.259-4.333 1.518-.482 6.148-.333 9.407.296 3.666.741 7.37 2.482 2.37 2.185z"/><path d="M104.756 226.78s-5.37 1-6.333 1.63c-.667.444-3.555 3.111-3.555 3.111s2-.186 3.222-1.186c1.185-.962 6.666-3.555 6.666-3.555z"/></g><g fill="#128f44"><path d="M149.125 225.632s13.295 1.666 11.888 9.518c-.815 4.481-3.926 5.852-7.963 5.259-7.444-1.074-15.888-2.666-15.888-2.666l-3.037-12.556 15 .445z"/><path d="M149.495 231.261l6.074-43.591s.556-9.333 3.889-8.851c4.814.704 12.258 14.851 12.444 17.777.333 5.963-8.296 36.665-9.407 42.813-.778 4.222-4.482-.852-8.778-1.666-7.999-1.445-4.222-6.482-4.222-6.482z"/></g><path d="M329.785 176.634l12.962-22.74 15.185.963 7.518 2.222-16.814 2.481-10.74 21.222-8.111-4.148z" class="H"/><path d="M344.747 150.301l1.963.63.926 2.556 12.259.518 9.666 2.667s-.259.74-.74.963c-1.815.777-9.519.555-9.519.555s1-2.074.149-2.555c-.852-.519-10.296-.778-12.593-.63-3.963.222-6.036 1.037-5.814.518.333-.74 3.703-5.222 3.703-5.222z" fill="#194866"/><path d="M265.121 219.558l35.628 4.037 31.629-55.961 10.666 5.296-31.999 67.85s-2.444 4.259-13.222 3.333c-10.481-.926-52.961-3.408-57.664-5.185-11.185-4.111 26.073-9.518 24.962-19.37z" fill="#163f59"/><path d="M129.052 161.783c.889.851 1.889 1.666 2.926 2.444 7.074 5.074 15.444 5.926 20.036 2.407 2.889 2.63 5.963 4.519 8.741 5.926 3.185 1.63 8.518 1.296 8.518 1.296 4.963 3.519 7.889 17.74-3.444 23.296-6.815 3.333-8-4.667-7.185-10.185.407-2.63.629-5.518-.074-6.667-2.408-3.999-4.222-4.036-7.259-4.592-4.926-.37-8.148 3-8.148 3-.333.333-.741.481-1.148.444-.815-.444-1.593-.963-2.296-1.666l-7.889-7.778c-2.185-2.148-3.111-5.074-2.778-7.925zm172.216 2.814l.444-18.147 3.667-4.37 9.777-5.741 7.333 1.259-12.814 9.704-.778 19.036-7.629-1.741z" class="H"/><path d="M302.231 142.487l3.296-2.407 1.037.777 9.074-5.851s8.296-2.222 9.925-.371c.519.593-.814 1.63-2.666 3-1.481 1.111-2.37 1.519-2.37 1.519s-.371-1.408-3.667-1.926c-1.037-.185-7.518 4.185-9.777 5.333-4 2.037-5.593 4.852-5.778 4.593-.518-.63.926-4.667.926-4.667zm-72.923 106.514l8.037-.333 65.368-4.666s5.851 1.777 9.518-7.519c5.222-13.184-2.222-78.997-2.222-78.997l-9.667.223-4.777 62.145s-45.887-14.666-56.294-11.036c-12.148 4.222-19.148 9.999-34.48 25.925-6.741 7.037 2.185 13.073 2.185 13.073l22.332 1.185z" fill="#194866"/><path d="M155.717 182.226s11.037-13.814 20.259-5.518c9.185 8.296 41.369 34.11 51.109 37.11l2.222 36.257c-26.554 1.741-48.368-11.814-50.183-14.517-5.852-8.852-27.11-42.295-23.407-53.332z" class="I"/><path d="M187.717 226.891c-2.593-3.555-7.963-11.148-13.148-19.666-6.555-10.777-16.555-8.962-11.185 1.593 5.667 11.148 12.703 22.184 15.74 26.702 1.815 2.704 19.444 16.296 46.036 14.518l-2.593-3.666c-19.036-1.815-33.184-17.148-34.85-19.481z" fill="#128f44"/><g class="H"><path d="M171.459 241.298s4 4.296-14.074 2.445c-12.851-1.297-12.555-.408-44.22-8.593l42.072.667c0 .037 11.63.074 16.222 5.481z"/><path d="M127.275 237.817c-8.629-.63-12.592 3.037-16.074 4s-7.073 2.592-7.036 2.555c2.148-3.222 4.926-3.111 6.407-4.074s1.074-.481-2-.889c-1.741-.259-5 2.334-7.296 3.704-2 1.185-3.185 1.222-3.185 1.222s2.407-2.667 5.407-4.741c3.63-2.481 8-4.481 9.037-4.777 1.889-.519 7.666-.296 11.74.518 4.556.889 9.185 2.926 3 2.482z"/></g><path d="M112.979 234.965s-6.703 1.037-7.888 1.741c-.852.481-4.408 3.481-4.408 3.481s2.482-.185 4-1.296c1.445-1.111 8.296-3.926 8.296-3.926z" fill="#e2c59c"/><path d="M162.015 234.113l-5.963-49.294s3.852-4.852 7.259-3.185c3.629 1.814 10.851 6.777 10.851 6.777s6.037 17.111 7.704 32.11c2.703 24.888 1.407 25.444-7.704 27.592-9.518 2.259-26.739-.037-26.739-.037l-3.815-14.074 18.407.111z" class="I"/><path d="M132.497 245.928c0-.037.037-.037.037-.074l-.037-1.889H53.685v1.889.074l.185.37c1 1.629 2.815 1.963 4.926 1.963h68.59c2.074 0 3.889-.296 4.926-1.963l.185-.37z" fill="#30b164"/><path d="M113.534 246.261s-.037.037 0 .037l.185.296c.297.408.704.741 1.149.963h11.962c2 0 3.74-.259 4.74-1.555l.186-.297c0-.037.037-.037.037-.037l-.037-.926h-18.259v1.519h.037zm-10.666-1.852H63.499v1.333h39.369v-1.333z" fill="#007a31"/><path d="M113.09 243.891l-10.222-38.74c-.259-1.037-1.333-1.852-2.333-1.852H45.24c-1.037 0-1.63.815-1.37 1.852l10.222 38.74h58.998z" class="I"/><path d="M81.795 223.632c.518 1.963-.667 3.593-2.63 3.593s-4-1.593-4.518-3.593c-.518-1.963.667-3.592 2.63-3.592 2 0 4 1.592 4.518 3.592z" fill="#007a31"/><path d="M112.713 139.43c0 2.685-2.175 4.865-4.865 4.865h-3.243v11.348l-11.348-11.348H55.971c-2.689 0-4.865-2.176-4.865-4.865V98.901c0-2.685 2.176-4.865 4.865-4.865h51.877a4.87 4.87 0 0 1 4.865 4.865v40.529z" fill="#f76f48"/><path d="M91.091 108.996c-3.721-2.865-7.284.333-9.537 2.734-2.252-2.405-5.811-5.599-9.537-2.734-6.69 5.144.419 11.402 2.059 13.379 2.721 3.284 5.559 6.293 7.036 7.82l.482.424c1.478-1.532 4.716-4.964 7.437-8.248 1.64-1.978 8.748-8.231 2.059-13.375z" class="C"/><ellipse cx="194.631" cy="284.352" rx="15.759" ry="1.109" fill="#010b01" fill-opacity=".3"/><path d="M182.564 247.364h26.009v-4.098h-26.009v4.098z" fill="url(#A)"/><g class="B"><use xlink:href="#d"/><use xlink:href="#e"/><use xlink:href="#e" x="2.507"/><use xlink:href="#d" x="7.52"/><use xlink:href="#e" x="7.52"/><use xlink:href="#e" x="10.026"/><use xlink:href="#d" x="15.043"/><use xlink:href="#e" x="15.043"/><use xlink:href="#d" x="20.056"/><use xlink:href="#d" x="22.563"/></g><path d="M181.334 251.461h26.008v-4.097h-26.008v4.097z" fill="url(#B)"/><g class="B"><use xlink:href="#d" x="-1.231" y="4.097"/><use xlink:href="#d" x="1.276" y="4.097"/><use xlink:href="#d" x="3.782" y="4.097"/><use xlink:href="#d" x="6.289" y="4.097"/><use xlink:href="#d" x="8.796" y="4.097"/><use xlink:href="#d" x="11.302" y="4.097"/><use xlink:href="#d" x="13.812" y="4.097"/><use xlink:href="#d" x="16.319" y="4.097"/><use xlink:href="#d" x="18.825" y="4.097"/><use xlink:href="#d" x="21.332" y="4.097"/></g><path d="M181.744 255.559h26.008v-4.098h-26.008v4.098z" fill="url(#C)"/><g class="B"><use xlink:href="#d" x="-0.82" y="8.195"/><use xlink:href="#d" x="1.686" y="8.195"/><use xlink:href="#d" x="4.193" y="8.195"/><use xlink:href="#d" x="6.699" y="8.195"/><use xlink:href="#d" x="9.206" y="8.195"/><use xlink:href="#d" x="11.712" y="8.195"/><use xlink:href="#e" x="11.716" y="8.195"/><use xlink:href="#d" x="16.729" y="8.195"/><use xlink:href="#d" x="19.236" y="8.195"/><use xlink:href="#d" x="21.742" y="8.195"/></g><path d="M178.872 259.656h26.008v-4.097h-26.008v4.097z" fill="url(#D)"/><g class="B"><use xlink:href="#d" x="-3.692" y="12.293"/><use xlink:href="#d" x="-1.185" y="12.293"/><use xlink:href="#d" x="1.321" y="12.293"/><use xlink:href="#e" x="1.321" y="12.293"/><use xlink:href="#e" x="3.827" y="12.293"/><use xlink:href="#e" x="6.334" y="12.293"/><use xlink:href="#d" x="11.351" y="12.293"/><use xlink:href="#d" x="13.857" y="12.293"/><use xlink:href="#d" x="16.364" y="12.293"/><use xlink:href="#e" x="16.364" y="12.293"/></g><path d="M182.564 263.754h26.009v-4.098h-26.009v4.098z" fill="url(#E)"/><g class="B"><use xlink:href="#d" y="16.39"/><use xlink:href="#e" y="16.39"/><use xlink:href="#e" x="2.507" y="16.39"/><use xlink:href="#d" x="7.52" y="16.39"/><use xlink:href="#e" x="7.52" y="16.39"/><use xlink:href="#e" x="10.026" y="16.39"/><use xlink:href="#d" x="15.043" y="16.39"/><use xlink:href="#e" x="15.043" y="16.39"/><use xlink:href="#d" x="20.056" y="16.39"/><use xlink:href="#d" x="22.563" y="16.39"/></g><path d="M205.701 263.754h-26.008v4.098h26.008v-4.098z" fill="url(#F)"/><g class="B"><use xlink:href="#f"/><use xlink:href="#f" x="-2.507"/><use xlink:href="#g"/><use xlink:href="#f" x="-7.522"/><use xlink:href="#f" x="-10.025"/><use xlink:href="#g" x="-7.518"/><use xlink:href="#f" x="-15.04"/><use xlink:href="#f" x="-17.547"/><use xlink:href="#g" x="-15.04"/><use xlink:href="#f" x="-22.562"/></g><path d="M206.932 267.851h-26.009v4.098h26.009v-4.098z" fill="url(#G)"/><g class="B"><use xlink:href="#f" x="1.231" y="4.097"/><use xlink:href="#f" x="-1.276" y="4.097"/><use xlink:href="#f" x="-3.784" y="4.097"/><use xlink:href="#f" x="-6.291" y="4.097"/><use xlink:href="#f" x="-8.794" y="4.097"/><use xlink:href="#f" x="-11.302" y="4.097"/><use xlink:href="#f" x="-13.809" y="4.097"/><use xlink:href="#g" x="-11.302" y="4.097"/><use xlink:href="#f" x="-18.824" y="4.097"/><use xlink:href="#f" x="-21.331" y="4.097"/></g><path d="M206.521 271.949h-26.008v4.098h26.008v-4.098z" fill="url(#H)"/><g class="B"><use xlink:href="#g" x="5.835" y="8.195"/><use xlink:href="#f" x="-1.686" y="8.195"/><use xlink:href="#f" x="-4.194" y="8.195"/><use xlink:href="#f" x="-6.702" y="8.195"/><use xlink:href="#f" x="-9.205" y="8.195"/><use xlink:href="#f" x="-11.712" y="8.195"/><use xlink:href="#f" x="-14.22" y="8.195"/><use xlink:href="#f" x="-16.727" y="8.195"/><use xlink:href="#g" x="-14.22" y="8.195"/><use xlink:href="#f" x="-21.742" y="8.195"/></g><path d="M209.393 276.047h-26.008v4.097h26.008v-4.097z" fill="url(#I)"/><g class="B"><use xlink:href="#f" x="3.692" y="12.292"/><use xlink:href="#g" x="6.199" y="12.292"/><use xlink:href="#f" x="-1.323" y="12.292"/><use xlink:href="#f" x="-3.83" y="12.292"/><use xlink:href="#g" x="-1.319" y="12.292"/><use xlink:href="#f" x="-8.841" y="12.292"/><use xlink:href="#f" x="-11.348" y="12.292"/><use xlink:href="#f" x="-13.856" y="12.292"/><use xlink:href="#f" x="-16.363" y="12.292"/><use xlink:href="#g" x="-13.856" y="12.292"/></g><path d="M205.701 280.144h-26.008v4.098h26.008v-4.098z" fill="url(#J)"/><g class="B"><use xlink:href="#f" y="16.39"/><use xlink:href="#f" x="-2.507" y="16.39"/><use xlink:href="#g" y="16.39"/><use xlink:href="#f" x="-7.522" y="16.39"/><use xlink:href="#f" x="-10.025" y="16.39"/><use xlink:href="#g" x="-7.518" y="16.39"/><use xlink:href="#f" x="-15.04" y="16.39"/><use xlink:href="#f" x="-17.547" y="16.39"/><use xlink:href="#g" x="-15.04" y="16.39"/><use xlink:href="#f" x="-22.562" y="16.39"/></g><path d="M154.341 88.118c0 5.212 4.224 9.444 9.444 9.444h6.296v22.027l22.027-22.027h72.378a9.44 9.44 0 0 0 9.444-9.444V9.444c0-5.212-4.224-9.444-9.444-9.444H163.785a9.45 9.45 0 0 0-9.444 9.444v78.674z" fill="#32b165"/><g class="D"><path d="M131.599 198.632l2.177.302c2.145.302 3.764 2.656 3.783 5.761.024 3.534-2.05 6.702-4.642 7.066l-2.176-.302c2.591-.363 4.673-3.524 4.641-7.066-.019-3.105-1.638-5.459-3.783-5.761z"/><path d="M131.97 211.764l-2.177-.302c.303.044.621.04.947-.003l2.177.302c-.326.043-.644.047-.947.003z"/></g><g class="E"><path d="M131.599 198.632l2.177.301c-.303-.044-.621-.04-.947.003l-2.177-.302c.326-.043.637-.039.947-.002z"/><path d="M131.97 211.764l-2.177-.302c-2.145-.302-3.764-2.657-3.783-5.761-.023-3.535 2.051-6.703 4.642-7.067l2.177.302c-2.591.364-4.674 3.524-4.642 7.066.019 3.105 1.638 5.459 3.783 5.762z"/></g><path d="M131.778 213.087l-2.177-.301c-2.591-.361-4.542-3.214-4.568-6.955-.025-4.275 2.48-8.093 5.612-8.526l2.177.302c-3.124.441-5.637 4.251-5.612 8.526.026 3.741 1.992 6.593 4.568 6.954z" class="F"/><path d="M132.814 197.615c3.124-.441 5.683 2.675 5.707 6.95s-2.48 8.093-5.612 8.526c-3.124.441-5.683-2.675-5.707-6.95s2.496-8.093 5.612-8.526zm.104 14.146c2.591-.363 4.673-3.523 4.641-7.066-.024-3.534-2.146-6.114-4.73-5.759-2.591.364-4.673 3.524-4.642 7.067.016 3.542 2.139 6.122 4.731 5.758z" class="D"/><path d="M132.829 198.936c2.591-.363 4.714 2.216 4.73 5.759.024 3.534-2.05 6.702-4.642 7.066s-4.714-2.216-4.73-5.759c-.032-3.542 2.051-6.702 4.642-7.066z" class="E"/><path d="M131.784 197.3l2.177.301a3.92 3.92 0 0 0-1.139.005l-2.176-.302c.381-.052.771-.048 1.138-.004zm1.045 1.636c-.437.061-.858.201-1.261.42.356-.171.721-.287 1.102-.339 2.592-.363 4.715 2.216 4.731 5.759.017 2.946-1.418 5.621-3.381 6.646 2.051-.97 3.565-3.71 3.539-6.727-.024-3.535-2.147-6.114-4.73-5.759zm-3.228 13.85l2.177.301c-1.26-.176-2.375-.952-3.185-2.121l-2.063-.144c.8 1.081 1.867 1.794 3.071 1.964zm3.517-12.181l.004 1.075c.319.028.576.184.77.484s.303.706.332 1.207l-.707.095c-.019-.286-.093-.5-.223-.658-.137-.15-.297-.212-.511-.185-.223.034-.397.148-.538.356-.133.201-.201.464-.198.783a1.21 1.21 0 0 0 .035.302c.025.087.058.166.115.237.097.142.313.244.624.296a2.39 2.39 0 0 1 .439.098c.352.124.617.336.803.644s.279.698.276 1.151c.007.589-.099 1.1-.325 1.541s-.501.722-.859.829l.007 1.282-.66.095-.006-1.234c-.39-.019-.711-.207-.945-.563s-.36-.823-.359-1.421l.676-.095c.02.398.103.684.256.865s.369.251.648.208c.254-.035.467-.173.616-.405s.225-.536.229-.894c-.002-.128-.011-.247-.028-.342-.017-.112-.05-.191-.083-.27-.114-.238-.354-.394-.713-.462-.064-.015-.104-.023-.136-.022-.447-.091-.783-.278-1.001-.554s-.318-.657-.324-1.151c.002-.533.093-.996.295-1.381s.471-.642.827-.781l-.004-1.059.668-.071z" class="F"/><path d="M133.524 200.608l.005 1.075c.318.028.575.185.769.485s.303.705.332 1.206l-.707.096c-.019-.287-.093-.501-.222-.658a.55.55 0 0 0-.512-.186c-.223.035-.396.148-.537.357-.134.2-.202.464-.191.774.001.111.011.215.035.302s.058.167.115.238c.097.142.313.243.632.287.191.03.335.06.439.099a1.47 1.47 0 0 1 .803.643c.187.309.279.698.276 1.152.006.589-.099 1.1-.325 1.54s-.51.714-.859.83l.015 1.289-.66.095-.006-1.234c-.39-.019-.711-.207-.946-.562s-.359-.824-.358-1.421l.676-.096c.02.398.103.684.256.865s.369.251.647.208c.255-.035.468-.172.617-.405s.225-.536.229-.894c-.002-.128-.011-.247-.028-.342-.017-.111-.05-.191-.083-.27-.122-.245-.354-.394-.713-.462l-.136-.022c-.447-.091-.783-.278-1.001-.554s-.318-.657-.324-1.151c.002-.533.092-.996.295-1.38s.471-.643.827-.782l-.004-1.059.644-.063z" class="D"/><path d="M154.76 248.875c-2.036-3.058-8.565-4.106-14.552-2.349s-9.179 5.655-7.129 8.699c2.036 3.058 8.565 4.106 14.552 2.349s9.179-5.655 7.129-8.699z" class="E"/><path d="M140.157 247.038c5.986-1.757 12.487-.709 14.552 2.349.462.676.655 1.398.606 2.137.189-.911.008-1.817-.541-2.663-2.037-3.058-8.565-4.107-14.552-2.35-4.642 1.359-7.608 4.019-7.735 6.562.47-2.376 3.34-4.766 7.67-6.035z" class="F"/><path d="M157.01 248.211c2.469 3.678-1.382 8.393-8.6 10.519s-15.097.851-17.553-2.841c-2.469-3.678 1.383-8.393 8.6-10.519s15.084-.837 17.553 2.841zm-23.917 7.028c2.037 3.058 8.566 4.106 14.552 2.349s9.18-5.655 7.143-8.713-8.565-4.106-14.551-2.349c-6.001 1.743-9.194 5.641-7.144 8.713z" fill="#ffed65"/><g class="F"><path d="M157.712 249.964l.445 2.934c.492 3.317-3.202 6.951-9.315 8.752-7.218 2.126-15.098.851-17.553-2.841-.376-.564-.61-1.158-.702-1.753-.014-.042-.015-.099-.03-.142l-.414-2.792c.092.595.325 1.189.701 1.753 2.469 3.678 10.321 4.952 17.553 2.841 6.114-1.773 9.821-5.421 9.315-8.752z"/><path d="M135.535 258.946c-2.109-.658-3.768-1.69-4.692-3.071-.375-.564-.609-1.158-.701-1.753l.415 2.793c.014.042.015.099.03.141.092.596.325 1.189.701 1.753.852 1.283 2.354 2.274 4.25 2.92l-.003-2.783zm16.538-9.132l-1.812.532c.133.41.009.795-.384 1.197-.407.388-1.014.721-1.849 1l-.563-.831c.467-.161.805-.364.987-.607s.194-.485.035-.725c-.174-.254-.474-.435-.9-.487-.413-.066-.909-.018-1.419.13-.198.059-.368.117-.495.19-.141.087-.268.159-.337.259-.197.201-.236.5-.146.925.06.255.09.453.063.595-.008.497-.216.94-.638 1.314s-1.015.693-1.793.915c-.991.295-1.912.404-2.779.343s-1.494-.281-1.882-.66l-2.179.649-.52-.789 2.094-.62c-.19-.495-.053-.979.41-1.453s1.197-.851 2.202-1.132l.535.803c-.665.221-1.103.467-1.327.725-.224.286-.221.57-.004.923.203.31.56.491 1.043.57s1.023.017 1.646-.16l.565-.205c.156-.073.311-.146.395-.232.338-.259.476-.63.385-1.112l-.03-.17c-.078-.609.044-1.108.394-1.524.337-.401.929-.72 1.764-.971.906-.265 1.729-.36 2.496-.312.753.063 1.352.283 1.782.648l1.797-.518.464.79z"/></g><path d="M151.699 249.449l-1.811.532c.132.41.009.795-.384 1.197-.408.388-1.014.721-1.849 1l-.563-.831c.467-.162.805-.364.987-.608s.193-.484.035-.724c-.174-.254-.474-.435-.901-.487-.412-.066-.908-.018-1.418.13-.198.059-.368.117-.495.19-.155.073-.268.159-.352.245-.196.201-.236.5-.146.925.06.255.091.453.064.595-.009.497-.217.94-.639 1.314s-1.014.693-1.793.914c-.99.296-1.912.405-2.779.344s-1.494-.281-1.881-.66l-2.18.649-.52-.789 2.095-.62c-.19-.495-.054-.979.409-1.453s1.198-.851 2.203-1.132l.534.803c-.665.22-1.102.467-1.326.725-.224.286-.221.57-.004.923.202.31.545.505 1.043.57.483.08 1.022.017 1.631-.146l.566-.205c.155-.073.31-.146.394-.232.338-.259.476-.63.386-1.112l-.031-.17c-.078-.609.045-1.108.381-1.509s.929-.72 1.764-.971c.905-.266 1.728-.36 2.495-.312.753.062 1.352.283 1.782.647l1.798-.517.505.775z" fill="#ffe231"/><path d="M105.453 204.031l-.35-1.363.339 1.332c.007.011.005.02.011.031z" class="D"/><path d="M116.361 199.619l.388 1.506c.1.387-.32.905-1.295 1.479-2.1 1.251-5.994 2.313-8.689 2.375-1.452.033-2.257-.233-2.378-.682l-.389-1.507c.112.447.929.706 2.381.674 2.703-.06 6.589-1.124 8.689-2.375.973-.565 1.392-1.083 1.293-1.47z" class="E"/><path d="M113.991 198.938c2.704-.059 3.184.91 1.084 2.162s-5.995 2.313-8.689 2.375c-2.704.059-3.184-.911-1.084-2.162 2.092-1.253 5.986-2.315 8.689-2.375zm-6.964 4.152c2.235-.048 5.456-.933 7.198-1.973s1.34-1.838-.895-1.79-5.456.933-7.198 1.973-1.34 1.838.895 1.79z" class="D"/><path d="M113.339 199.329c2.235-.048 2.637.75.895 1.79s-4.961 1.916-7.198 1.973c-2.235.048-2.637-.75-.895-1.79 1.733-1.042 4.963-1.925 7.198-1.973z" class="E"/><g class="F"><path d="M106.177 201.492c1.742-1.04 4.961-1.916 7.199-1.973 1.108-.026 1.771.165 1.936.483.017-.433-.663-.704-1.981-.675-2.236.048-5.457.933-7.199 1.973-.876.523-1.203.98-1.041 1.307.014-.31.369-.693 1.086-1.115zm-1.436 1.842l.326 1.49c.396.122.971.176 1.696.164s1.538-.105 2.373-.25l-.328-1.519c-.856.149-1.689.246-2.434.262-.687.012-1.242-.046-1.633-.147z"/><path d="M112.56 199.992l-.527.31c.243.016.363.066.369.153s-.102.211-.34.358l-.611.013c.125-.082.182-.153.146-.2-.026-.045-.133-.072-.316-.063a2.7 2.7 0 0 0-.603.091c-.205.061-.384.128-.541.221-.056.033-.092.061-.119.092s-.032.049-.03.078c.009.04.122.079.354.101l.303.041c.216.046.322.112.317.206s-.12.206-.355.344c-.292.172-.625.323-1.028.447a4.81 4.81 0 0 1-1.095.229l-.63.378-.573.013.608-.365c-.301-.011-.466-.073-.476-.18s.131-.251.414-.425l.582-.01c-.182.114-.26.198-.23.263.033.056.169.082.408.077.221-.009.457-.043.692-.106s.447-.15.618-.257a1.27 1.27 0 0 0 .15-.104c.036-.029.063-.06.068-.077.027-.069-.082-.126-.34-.155-.047-.003-.074-.01-.092-.014-.311-.043-.478-.096-.513-.181s.071-.2.308-.347c.26-.161.569-.29.92-.398a5.37 5.37 0 0 1 1.044-.215l.518-.312.6-.006z"/></g><path d="M112.51 199.78l-.527.31c.243.015.363.065.369.152s-.102.211-.34.359l-.611.012c.126-.081.182-.152.147-.199-.027-.045-.133-.073-.316-.063a2.58 2.58 0 0 0-.603.091c-.206.061-.385.128-.542.221-.056.032-.092.061-.119.092s-.032.049-.03.078c.009.04.122.079.354.101l.303.041c.216.046.323.112.317.205s-.12.207-.355.345c-.291.172-.634.32-1.019.449-.393.126-.755.203-1.094.229l-.63.378-.574.013.608-.365c-.301-.011-.466-.073-.476-.18s.132-.251.414-.425l.582-.01c-.181.114-.262.207-.229.263s.168.082.407.077a3.47 3.47 0 0 0 .692-.105c.235-.063.448-.151.618-.258a1.19 1.19 0 0 0 .15-.104c.036-.029.063-.06.068-.077.027-.069-.081-.126-.34-.155-.047-.003-.073-.01-.091-.014-.312-.043-.479-.096-.514-.181s.071-.2.309-.347c.26-.161.569-.29.92-.398a5.36 5.36 0 0 1 1.043-.214l.518-.313.591-.008zm39.564 19.138c4.839 2.474 5.855 6.3 2.289 8.521s-10.393 2.008-15.232-.466c-4.827-2.485-5.854-6.3-2.288-8.521s10.393-2.008 15.231.466zm-11.832 7.371c4.006 2.058 9.658 2.23 12.613.384s2.103-5.002-1.892-7.049c-4.006-2.058-9.657-2.229-12.612-.384-2.967 1.835-2.114 4.991 1.891 7.049z" class="D"/><path d="M150.953 219.612c-4.006-2.058-9.658-2.229-12.613-.384s-2.114 5.014 1.892 7.05c4.006 2.058 9.657 2.229 12.612.384 2.967-1.835 2.115-4.991-1.891-7.05z" class="E"/><path d="M156.446 224.653l-.366 2.32c-.167 1.031-.85 2.001-2.094 2.775-3.577 2.233-10.382 2.019-15.231-.466-3.151-1.62-4.686-3.807-4.383-5.746l.365-2.32c-.303 1.939 1.232 4.126 4.383 5.746 4.838 2.474 11.643 2.688 15.231.466 1.245-.752 1.928-1.722 2.095-2.775z" class="F"/><path d="M139.131 226.973c-1.372-.7-2.433-1.516-3.17-2.37l-.286 2.398c.736.83 1.774 1.602 3.102 2.281 4.535 2.332 10.814 2.652 14.531.843l.276-2.274c-3.728 1.776-9.952 1.443-14.453-.878z" class="E"/><path d="M149.904 220.979l-.899.558c.428.286.666.585.681.91.026.312-.161.617-.549.901l-1.092-.559c.222-.159.287-.338.24-.539-.058-.19-.25-.378-.565-.531a2.33 2.33 0 0 0-1.055-.279c-.369-.007-.67.075-.937.234-.1.057-.166.125-.21.193a.31.31 0 0 0-.042.224c.024.156.239.389.645.698a4.57 4.57 0 0 1 .542.441c.396.365.59.709.605 1.034.003.313-.184.595-.573.834-.5.308-1.08.471-1.762.512a4.26 4.26 0 0 1-1.927-.314l-1.078.672-1.013-.525 1.033-.65c-.541-.352-.847-.717-.885-1.108s.182-.73.682-1.037l1.047.536c-.311.227-.432.441-.384.665.069.222.318.443.745.662a2.84 2.84 0 0 0 1.212.322c.414.007.783-.076 1.082-.269.112-.068.189-.125.244-.204a.41.41 0 0 0 .11-.203c.042-.224-.185-.512-.636-.865-.079-.055-.125-.1-.17-.121-.564-.442-.881-.818-.952-1.153s.093-.617.504-.879c.445-.273.969-.424 1.584-.442a4.81 4.81 0 0 1 1.838.314l.889-.547 1.046.515z" class="F"/><path d="M149.775 220.432l-.9.558c.429.286.667.585.682.91.026.313-.161.617-.549.901l-1.092-.558c.222-.16.287-.339.229-.529s-.25-.377-.565-.53c-.338-.176-.708-.272-1.055-.279-.369-.007-.67.074-.937.234-.1.057-.167.125-.211.192s-.054.146-.042.225c.024.156.24.388.646.697a4.56 4.56 0 0 1 .542.442c.395.364.589.709.604 1.033.004.313-.183.595-.572.835-.5.307-1.08.47-1.762.512a4.28 4.28 0 0 1-1.928-.314l-1.077.672-1.013-.526 1.033-.649c-.541-.352-.847-.718-.885-1.109s.182-.729.682-1.037l1.046.537c-.31.227-.431.441-.373.653.07.223.319.444.746.662a2.84 2.84 0 0 0 1.212.323c.414.006.782-.076 1.071-.259.111-.068.189-.125.244-.204.066-.068.099-.146.11-.202.042-.225-.185-.513-.637-.866-.079-.055-.124-.099-.169-.121-.564-.441-.882-.818-.953-1.153s.094-.616.505-.878c.445-.274.969-.425 1.584-.443s1.22.087 1.838.315l.889-.547 1.057.503z" class="D"/><ellipse cx="149.673" cy="281.232" rx="22.929" ry="1.614" fill="#010b01" fill-opacity=".2"/><path d="M157.642 267.635h-28.227v4.448h28.227v-4.448z" fill="url(#K)"/><g class="B"><use xlink:href="#h"/><use xlink:href="#h" x="-2.721"/><use xlink:href="#h" x="-5.442"/><use xlink:href="#h" x="-8.164"/><use xlink:href="#h" x="-10.881"/><use xlink:href="#h" x="-13.602"/><use xlink:href="#h" x="-16.323"/><path d="M136.504 271.638h.446v-3.558h-.446v3.558z"/><use xlink:href="#h" x="-21.766"/><use xlink:href="#h" x="-24.487"/></g><path d="M160.759 272.082h-28.228v4.448h28.228v-4.448z" fill="url(#L)"/><g class="B"><use xlink:href="#h" x="3.117" y="4.447"/><use xlink:href="#h" x="0.396" y="4.447"/><use xlink:href="#h" x="-2.325" y="4.447"/><path d="M150.502 276.085h.446v-3.558h-.446v3.558zm-2.717 0h.446v-3.558h-.446v3.558z"/><use xlink:href="#h" x="-10.485" y="4.447"/><use xlink:href="#h" x="-13.206" y="4.447"/><use xlink:href="#h" x="-15.927" y="4.447"/><use xlink:href="#h" x="-18.649" y="4.447"/><use xlink:href="#h" x="-21.37" y="4.447"/></g><path d="M156.752 276.53h-28.227v4.447h28.227v-4.447z" fill="url(#M)"/><g class="B"><use xlink:href="#h" x="-0.89" y="8.894"/><use xlink:href="#h" x="-3.612" y="8.894"/><use xlink:href="#h" x="-6.333" y="8.894"/><use xlink:href="#h" x="-9.054" y="8.894"/><use xlink:href="#h" x="-11.771" y="8.894"/><use xlink:href="#h" x="-14.493" y="8.894"/><use xlink:href="#h" x="-17.214" y="8.894"/><use xlink:href="#h" x="-19.935" y="8.894"/><path d="M132.892 280.532h.446v-3.558h-.446v3.558z"/><use xlink:href="#h" x="-25.378" y="8.894"/></g><path d="M154.695 257.576l19.217 20.648-3.26 3.029-19.22-20.649 3.263-3.028z" fill="url(#N)"/><path d="M155.792 259.405l-.304-.326-2.608 2.422.303.326 2.609-2.422zm1.853 1.988l-.303-.325-2.608 2.422.303.325 2.608-2.422zm1.851 1.992l-.303-.326-2.609 2.422.304.326 2.608-2.422zm1.851 1.991l-.303-.326-2.609 2.422.303.326 2.609-2.422zm1.855 1.989l-.304-.326-2.608 2.422.303.326 2.609-2.422zm1.851 1.991l-.303-.326-2.609 2.422.303.326 2.609-2.422zm1.854 1.988l-.303-.325-2.609 2.422.303.325 2.609-2.422zm1.851 1.992l-.303-.326-2.609 2.422.303.326 2.609-2.422zm1.85 1.991l-.303-.326-2.608 2.423.303.325 2.608-2.422zm1.855 1.988l-.303-.325-2.609 2.422.303.325 2.609-2.422z" class="B"/><path d="M187.049 45.485l20.443 20.442 34.241-34.241" stroke="#fff" stroke-width="9.199"/><path d="M71.645 184.421c.364-1.743-.526-4.626-2.431-7.388s-4.284-4.611-6.041-4.888l-.36-.522-1.146.795c-1.632 1.127-.895 5.024 1.642 8.701s5.918 5.745 7.548 4.617l1.147-.794-.36-.521z" fill="url(#O)"/><path d="M63.449 175.001c-.997.692-.546 3.074 1.006 5.325s3.622 3.516 4.618 2.826.548-3.075-1.005-5.326-3.621-3.517-4.62-2.825z" class="G"/><path d="M68.653 177.422l-.739-.98.393-.611.907 1.202.803 1.276-.711.151-.653-1.038zm-5.19-3.984l-.634-1.323c.532.02 1.132.199 1.771.526l.298 1.215c-.517-.263-1.003-.408-1.434-.418zm7.193 8.763l1.029.709c.08.713.035 1.339-.135 1.843l-1.01-1.062c.143-.407.18-.912.117-1.49zm-8.642-7.553l-1.145.792c-.101-.713-.084-1.347.056-1.868l1.144-.792c-.108.425-.137 1.292-.055 1.868zm2.441 5.678l.868 1.153-1.146.794-.869-1.154-.768-1.22 1.144-.792c0-.001.545.893.771 1.219zm6.206 4.903l-1.146.793c-.535-.055-1.134-.265-1.766-.609l1.147-.794c.511.283 1.765.61 1.765.61z" class="C"/><path d="M62.813 171.623c-1.632 1.13-.896 5.025 1.642 8.703s5.916 5.745 7.549 4.616.892-5.023-1.644-8.701-5.919-5.744-7.547-4.618z" fill="url(#P)"/><path d="M64.594 174.207c-.998.692-.547 3.076 1.006 5.326s3.621 3.517 4.62 2.826.547-3.075-1.006-5.326-3.622-3.515-4.62-2.826z" fill="url(#Q)"/><path d="M69.798 176.63l-.738-.98.393-.612.907 1.204.804 1.276-.711.151-.656-1.039zm-5.188-3.986l-.636-1.318c.533.017 1.134.196 1.771.524l.299 1.213c-.516-.264-1.003-.408-1.433-.419zm7.191 8.765l1.03.709c.08.712.034 1.337-.135 1.841l-1.01-1.061c.142-.406.18-.913.115-1.489zm-8.761-6.05l-1.026-.711c-.101-.712-.083-1.346.056-1.867l1.009 1.062c-.11.422-.12.939-.038 1.516zm1.976 4.579l.699.929-.392.611-.868-1.152-.771-1.221.711-.151.62.984zm5.01 3.969l.635 1.322c-.536-.054-1.135-.262-1.767-.609l-.3-1.212c.513.28.996.454 1.432.499z" class="C"/><path d="M29.36 161.181c-2.747.668-6.268 3.914-8.919 8.533s-3.675 9.298-2.867 12.008l-.501.873 1.921 1.103c2.732 1.571 7.81-2.146 11.34-8.299s4.178-12.417 1.446-13.986l-1.922-1.103-.498.871z" fill="url(#R)"/><path d="M21.477 179.377c1.673.96 4.778-1.316 6.939-5.081s2.557-7.598.886-8.559-4.78 1.314-6.942 5.079-2.556 7.599-.883 8.561z" class="G"/><path d="M21.382 170.254l-.897 1.729-1.144-.146 1.1-2.123 1.279-2.024.703.917-1.04 1.647zm-2.157 10.168l-1.46 1.814c-.336-.776-.49-1.76-.46-2.9l1.537-1.259c-.022.923.102 1.72.382 2.345zm7.63-16.307l.312-1.962c.965-.601 1.892-.965 2.732-1.064l-.83 2.174c-.68.076-1.43.367-2.215.852zm-4.902 17.56l1.919 1.102c-.951.632-1.872 1.04-2.716 1.195l-1.917-1.102c.683-.132 1.944-.682 2.713-1.195zm6.464-7.379l1.056-2.033 1.922 1.102-1.059 2.035-1.222 1.936-1.918-1.1c0-.001.907-1.393 1.221-1.94zm2.774-12.256l1.921 1.104c.288.805.397 1.807.337 2.949l-1.922-1.103c.055-.925-.337-2.95-.337-2.95z" class="C"/><path d="M17.074 182.596c2.734 1.571 7.812-2.146 11.343-8.299s4.179-12.415 1.444-13.987-7.805 2.149-11.336 8.302-4.179 12.416-1.45 13.984z" fill="url(#S)"/><path d="M19.555 178.273c1.674.961 4.781-1.316 6.941-5.081s2.559-7.599.886-8.56-4.779 1.315-6.941 5.081-2.556 7.599-.886 8.56z" fill="url(#T)"/><path d="M19.463 169.152l-.9 1.728-1.144-.145 1.103-2.123 1.276-2.025.704.917-1.039 1.648zm-2.16 10.168l-1.453 1.814c-.339-.777-.494-1.761-.462-2.899l1.534-1.258c-.023.921.103 1.717.381 2.343zm7.635-16.307l.311-1.962c.965-.601 1.892-.962 2.732-1.064l-.829 2.175c-.682.074-1.434.366-2.215.851zm-2.67 16.704l-.314 1.958c-.951.631-1.871 1.039-2.713 1.195l.83-2.173c.68-.13 1.429-.467 2.198-.98zm5.208-5.962l.851-1.638 1.144.145-1.056 2.033-1.221 1.94-.703-.919.985-1.561zm2.255-9.901l1.46-1.814c.29.806.4 1.809.337 2.951l-1.532 1.259c.051-.928-.03-1.74-.265-2.396z" class="C"/><path d="M131.745 124.589c2.507 3.163 2.996 7.091 1.387 9.513l.158.201-1.054.807v-.002l-.102.087c-2.715 2.156-7.296.905-10.226-2.797s-3.109-8.448-.39-10.605a5.01 5.01 0 0 1 .318-.229l.836-.664.135.169c2.721-1.018 6.432.354 8.938 3.52z" fill="url(#U)"/><path d="M122.825 125.016c-1.666 1.324-1.556 4.228.238 6.494s4.596 3.03 6.259 1.711 1.558-4.23-.238-6.493-4.597-3.032-6.259-1.712z" class="G"/><path d="M130.055 125.954a8.95 8.95 0 0 0-.876-.96l.737-.959c.375.361.738.751 1.075 1.178s.635.868.899 1.314l-1.102.498c-.214-.367-.458-.723-.733-1.071zm-6.838-2.974l-.636-1.448c.795-.201 1.651-.225 2.53-.069l.162 1.449c-.716-.119-1.412-.1-2.056.068zm8.707 8.331l1.376.486c-.051.891-.268 1.722-.644 2.449l-1.261-.95c.308-.587.485-1.261.529-1.985zm-10.419-6.764l-1.907 1.515c.022-.887.196-1.718.53-2.453l1.907-1.514c-.264.595-.514 1.737-.53 2.452zm2.311 6.338c.26.33.739.848 1.028 1.128l-1.908 1.516a11.51 11.51 0 0 1-1.027-1.13 11.13 11.13 0 0 1-.863-1.26l1.906-1.514.864 1.26zm8.146 3.735l-1.91 1.517c-.787.155-1.64.14-2.503-.044l1.905-1.513c.7.149 2.508.04 2.508.04z" class="C"/><path d="M122.672 120.9c-2.718 2.16-2.54 6.907.39 10.609s7.51 4.952 10.228 2.792 2.542-6.908-.391-10.606-7.511-4.95-10.227-2.795z" fill="url(#V)"/><path d="M124.732 123.502c-1.665 1.32-1.558 4.226.237 6.489s4.597 3.032 6.262 1.711 1.554-4.226-.24-6.491-4.597-3.032-6.259-1.709z" fill="url(#W)"/><path d="M131.965 124.438c-.275-.347-.569-.665-.875-.96l.735-.96a11.93 11.93 0 0 1 1.074 1.178c.338.427.635.868.899 1.318l-1.101.496a9.33 9.33 0 0 0-.732-1.072zm-6.838-2.975l-.64-1.445c.795-.202 1.653-.224 2.532-.072l.16 1.452c-.711-.122-1.409-.101-2.052.065zm8.704 8.332l1.376.487c-.05.891-.268 1.722-.644 2.451l-1.259-.953c.308-.588.484-1.263.527-1.985zm-11.705-4.142l-1.374-.483c.021-.884.199-1.716.53-2.451l1.263.948c-.267.6-.404 1.272-.419 1.986zm1.869 5.113c.261.331.541.631.828.912l-.733.959c-.36-.346-.705-.721-1.028-1.128s-.609-.832-.865-1.261l1.101-.497a10 10 0 0 0 .697 1.015zm6.575 3.032l.638 1.446c-.792.156-1.641.14-2.506-.041l-.159-1.45c.699.151 1.386.169 2.027.045z" class="C"/><path d="M19.706 221.345c1.685-.218 4.005-1.925 5.896-4.511s2.816-5.313 2.515-6.986l.358-.489-1.074-.786c-1.526-1.119-4.807.767-7.326 4.211s-3.325 7.144-1.799 8.262l1.074.786.356-.487z" fill="url(#X)"/><path d="M25.63 210.991c-.935-.684-2.941.471-4.483 2.578s-2.035 4.372-1.102 5.057 2.942-.469 4.485-2.577 2.035-4.372 1.1-5.058z" class="G"/><path d="M25.076 216.449l.651-.974.673.163-.799 1.196-.899 1.125-.358-.594.731-.916zm1.968-5.934l.993-.987c.149.486.175 1.084.081 1.763l-1.002.651c.075-.55.054-1.034-.071-1.427zm-5.646 9.242l-.318 1.152c-.617.296-1.195.452-1.703.456l.641-1.245c.411 0 .878-.125 1.379-.363zm4.101-10.171l-1.072-.785c.61-.315 1.188-.498 1.701-.535l1.071.785c-.416.034-1.207.28-1.7.535zm-4.352 3.983l-.767 1.146-1.074-.786.768-1.146.859-1.077 1.072.785-.859 1.078zm-2.477 7.142l-1.073-.787c-.118-.5-.116-1.106-.004-1.785l1.073.786c-.095.55.004 1.786.004 1.786z" class="C"/><path d="M28.475 209.359c-1.527-1.12-4.808.766-7.328 4.21s-3.326 7.143-1.798 8.263 4.804-.768 7.324-4.212 3.326-7.144 1.801-8.261z" fill="url(#Y)"/><path d="M26.704 211.778c-.936-.685-2.943.47-4.484 2.578s-2.036 4.372-1.102 5.057 2.942-.47 4.484-2.578 2.035-4.373 1.102-5.057z" fill="url(#Z)"/><path d="M26.149 217.235l.653-.973.673.162-.801 1.196-.897 1.126-.359-.595.731-.916zm1.969-5.934l.989-.988c.151.486.177 1.085.082 1.763l-1 .651c.075-.549.053-1.034-.071-1.426zm-5.649 9.241l-.317 1.152c-.617.295-1.194.45-1.703.455l.64-1.245c.412.001.881-.124 1.379-.362zm2.712-9.807l.319-1.149c.61-.314 1.187-.497 1.7-.535l-.641 1.244c-.415.033-.884.185-1.378.44zm-3.509 3.22l-.618.922-.673-.162.767-1.145.859-1.079.358.596-.692.868zm-2.009 5.768l-.993.988c-.119-.502-.118-1.108-.004-1.787l.999-.65c-.093.551-.099 1.042-.002 1.449z" class="C"/><path d="M27.1 117.151c.377-2.801-1.366-7.264-4.705-11.416s-7.324-6.809-10.143-7.045l-.631-.785-1.727 1.388c-2.458 1.972-.842 8.055 3.605 13.585s10.048 8.415 12.503 6.443l1.727-1.389-.63-.781z" fill="url(#a)"/><path d="M13.017 103.179c-1.503 1.209-.513 4.929 2.209 8.314s6.148 5.149 7.651 3.943.516-4.93-2.206-8.316-6.149-5.149-7.654-3.941z" class="G"/><path d="M21.548 106.417l-1.284-1.465.552-1.012 1.578 1.797 1.421 1.929-1.111.32-1.156-1.569zm-8.689-5.715l-1.159-2.02c.846-.03 1.819.185 2.869.629l.614 1.891c-.852-.358-1.639-.532-2.324-.499zM25.28 113.75l1.714 1.006c.209 1.118.21 2.114-.003 2.932l-1.724-1.565c.177-.66.179-1.465.012-2.373zm-14.581-10.966l-1.725 1.386c-.243-1.116-.288-2.122-.125-2.964l1.724-1.384c-.125.684-.072 2.059.126 2.962zm4.527 8.708l1.51 1.725-1.726 1.388-1.511-1.728-1.359-1.843 1.723-1.386c.001.001.967 1.352 1.363 1.844zm10.411 7.051l-1.728 1.387c-.855-.025-1.828-.288-2.87-.76l1.727-1.388c.842.388 2.871.761 2.871.761z" class="C"/><path d="M11.62 97.907c-2.459 1.974-.843 8.057 3.604 13.587s10.045 8.415 12.504 6.44.838-8.052-3.609-13.582-10.046-8.415-12.499-6.445z" fill="url(#b)"/><path d="M14.744 101.793c-1.504 1.209-.514 4.932 2.208 8.315s6.148 5.152 7.652 3.944.514-4.93-2.208-8.315-6.15-5.15-7.652-3.944z" fill="url(#c)"/><path d="M23.274 105.032l-1.283-1.468.552-1.012 1.576 1.801 1.422 1.926-1.11.321-1.157-1.568zm-8.689-5.717l-1.162-2.014c.847-.033 1.82.181 2.869.626l.614 1.887c-.85-.357-1.638-.529-2.321-.499zm12.419 13.052l1.714 1.005c.209 1.118.208 2.113-.003 2.932l-1.724-1.564c.179-.662.18-1.469.013-2.373zm-14.595-8.576l-1.71-1.006c-.242-1.115-.287-2.121-.126-2.962l1.723 1.564c-.127.681-.085 1.501.112 2.404zm3.663 7.023l1.216 1.39-.551 1.012-1.51-1.724-1.363-1.844 1.112-.32 1.096 1.486zm8.405 5.709l1.159 2.021c-.857-.024-1.831-.286-2.872-.762l-.615-1.885c.846.386 1.632.606 2.328.626z" class="C"/><defs><linearGradient id="A" x1="207.238" y1="245.315" x2="184.119" y2="245.315" xlink:href="#i"><stop offset=".001" stop-color="#fed600"/><stop offset="1" stop-color="#fff176"/></linearGradient><linearGradient id="B" x1="206.007" y1="249.412" x2="182.889" y2="249.412" xlink:href="#i"><stop offset=".001" stop-color="#fed600"/><stop offset="1" stop-color="#fff176"/></linearGradient><linearGradient id="C" x1="206.418" y1="253.51" x2="183.299" y2="253.51" xlink:href="#i"><stop offset=".001" stop-color="#fed600"/><stop offset="1" stop-color="#fff176"/></linearGradient><linearGradient id="D" x1="203.546" y1="257.607" x2="180.427" y2="257.607" xlink:href="#i"><stop offset=".001" stop-color="#fed600"/><stop offset="1" stop-color="#fff176"/></linearGradient><linearGradient id="E" x1="207.238" y1="261.705" x2="184.119" y2="261.705" xlink:href="#i"><stop offset=".001" stop-color="#fed600"/><stop offset="1" stop-color="#fff176"/></linearGradient><linearGradient id="F" x1="181.026" y1="265.803" x2="204.145" y2="265.803" xlink:href="#i"><stop offset=".203" stop-color="#fed600"/><stop offset=".854" stop-color="#fff176"/></linearGradient><linearGradient id="G" x1="182.257" y1="269.9" x2="205.376" y2="269.9" xlink:href="#i"><stop offset=".203" stop-color="#fed600"/><stop offset=".854" stop-color="#fff176"/></linearGradient><linearGradient id="H" x1="181.847" y1="273.998" x2="204.966" y2="273.998" xlink:href="#i"><stop offset=".203" stop-color="#fed600"/><stop offset=".854" stop-color="#fff176"/></linearGradient><linearGradient id="I" x1="184.718" y1="278.095" x2="207.837" y2="278.095" xlink:href="#i"><stop offset=".203" stop-color="#fed600"/><stop offset=".854" stop-color="#fff176"/></linearGradient><linearGradient id="J" x1="181.026" y1="282.193" x2="204.145" y2="282.193" xlink:href="#i"><stop offset=".203" stop-color="#fed600"/><stop offset=".854" stop-color="#fff176"/></linearGradient><linearGradient id="K" x1="130.862" y1="269.859" x2="155.954" y2="269.859" xlink:href="#i"><stop offset=".203" stop-color="#fed600"/><stop offset=".854" stop-color="#fff176"/></linearGradient><linearGradient id="L" x1="133.979" y1="274.306" x2="159.07" y2="274.306" xlink:href="#i"><stop offset=".203" stop-color="#fed600"/><stop offset=".854" stop-color="#fff176"/></linearGradient><linearGradient id="M" x1="129.972" y1="278.753" x2="155.063" y2="278.753" xlink:href="#i"><stop offset=".203" stop-color="#fed600"/><stop offset=".854" stop-color="#fff176"/></linearGradient><linearGradient id="N" x1="171.371" y1="278.742" x2="154.31" y2="260.367" xlink:href="#i"><stop offset=".001" stop-color="#fed600"/><stop offset="1" stop-color="#fff176"/></linearGradient><linearGradient id="O" x1="59.761" y1="176.039" x2="73.268" y2="182.126" xlink:href="#i"><stop stop-color="#ffb41d"/><stop offset="1" stop-color="#dc1414"/></linearGradient><linearGradient id="P" x1="60.868" y1="175.331" x2="73.944" y2="181.223" xlink:href="#i"><stop stop-color="#ffb41d"/><stop offset="1" stop-color="#dc1414"/></linearGradient><linearGradient id="Q" x1="63.403" y1="176.475" x2="71.407" y2="180.082" xlink:href="#i"><stop stop-color="#ffb41d"/><stop offset="1" stop-color="#dc1414"/></linearGradient><linearGradient id="R" x1="25.493" y1="183.961" x2="25.006" y2="160.418" xlink:href="#i"><stop stop-color="#ffb41d"/><stop offset="1" stop-color="#dc1414"/></linearGradient><linearGradient id="S" x1="23.721" y1="182.856" x2="23.25" y2="160.066" xlink:href="#i"><stop stop-color="#ffb41d"/><stop offset="1" stop-color="#dc1414"/></linearGradient><linearGradient id="T" x1="23.625" y1="178.436" x2="23.336" y2="164.486" xlink:href="#i"><stop stop-color="#ffb41d"/><stop offset="1" stop-color="#dc1414"/></linearGradient><linearGradient id="U" x1="122.819" y1="133.489" x2="130.997" y2="123.653" xlink:href="#i"><stop stop-color="#ffb41d"/><stop offset="1" stop-color="#dc1414"/></linearGradient><linearGradient id="V" x1="123.887" y1="132.528" x2="132.067" y2="122.691" xlink:href="#i"><stop stop-color="#ffb41d"/><stop offset="1" stop-color="#dc1414"/></linearGradient><linearGradient id="W" x1="125.473" y1="130.619" x2="130.478" y2="124.598" xlink:href="#i"><stop stop-color="#ffb41d"/><stop offset="1" stop-color="#dc1414"/></linearGradient><linearGradient id="X" x1="23.539" y1="207.987" x2="22.273" y2="222.09" xlink:href="#i"><stop stop-color="#ffb41d"/><stop offset="1" stop-color="#dc1414"/></linearGradient><linearGradient id="Y" x1="24.523" y1="208.764" x2="23.298" y2="222.417" xlink:href="#i"><stop stop-color="#ffb41d"/><stop offset="1" stop-color="#dc1414"/></linearGradient><linearGradient id="Z" x1="24.285" y1="211.412" x2="23.535" y2="219.768" xlink:href="#i"><stop stop-color="#ffb41d"/><stop offset="1" stop-color="#dc1414"/></linearGradient><linearGradient id="a" x1="7.285" y1="105.25" x2="29.398" y2="113.365" xlink:href="#i"><stop stop-color="#ffb41d"/><stop offset="1" stop-color="#dc1414"/></linearGradient><linearGradient id="b" x1="8.959" y1="104.003" x2="30.365" y2="111.859" xlink:href="#i"><stop stop-color="#ffb41d"/><stop offset="1" stop-color="#dc1414"/></linearGradient><linearGradient id="c" x1="13.112" y1="105.524" x2="26.214" y2="110.333" xlink:href="#i"><stop stop-color="#ffb41d"/><stop offset="1" stop-color="#dc1414"/></linearGradient><path id="d" d="M184.492 243.676h-.41v3.278h.41v-3.278z"/><path id="e" d="M186.999 243.676h-.411v3.278h.411v-3.278z"/><path id="f" d="M203.772 267.442h.41v-3.278h-.41v3.278z"/><path id="g" d="M198.757 267.442h.411v-3.278h-.411v3.278z"/><path id="h" d="M155.549 271.638h.445v-3.558h-.445v3.558z"/><linearGradient id="i" gradientUnits="userSpaceOnUse"/></defs></svg>