<svg xmlns="http://www.w3.org/2000/svg" width="57" height="60" fill="none" fill-rule="evenodd" xmlns:v="https://vecta.io/nano"><g fill-rule="nonzero"><ellipse fill="#edf4ed" cx="24.21" cy="33" rx="24.21" ry="24"/><path d="M49.43 52H16.14c-1.67 0-3.026-1.343-3.026-3V1h33.29c1.67 0 3.026 1.343 3.026 3v48z" fill="#fff"/></g><path d="M39.34 18H23.2m12.106 4h-8.07M39.34 52h13.114c1.67 0 3.026-1.343 3.026-3v-2h-6.05M13.114 6v43c0 1.657 1.355 3 3.026 3h7.06" stroke="#197419" stroke-width="2" stroke-linecap="round" stroke-linejoin="round"/><path d="M11.096 1h35.306c-1.67 0-3.026 1.343-3.026 3v2H8.07V4c0-1.657 1.355-3 3.026-3z" fill="#bad5ba" fill-rule="nonzero"/><g stroke="#197419" stroke-width="2" stroke-linejoin="round"><path d="M52.455 52c-1.67 0-3.026-1.343-3.026-3V4c0-1.657-1.355-3-3.026-3s-3.026 1.343-3.026 3v2H8.07V4c0-1.657 1.355-3 3.026-3h35.306" stroke-linecap="round"/><g fill-rule="nonzero"><g fill="#bad5ba"><path d="M35.306 44v15l-4.035-3-4.035 3V44z"/><path d="M31.27 32.34h0c-.8-1.162-2.328-1.607-3.645-1.067S25.55 33.2 25.804 34.58h0c-1.402-.252-2.792.5-3.336 1.806s-.096 2.81 1.076 3.614h0c-1.172.803-1.62 2.308-1.076 3.614s1.934 2.058 3.336 1.806h0c-.254 1.4.505 2.767 1.822 3.307s2.835.095 3.645-1.067h0c.8 1.162 2.328 1.607 3.645 1.067s2.076-1.917 1.822-3.307h0c1.402.252 2.792-.5 3.336-1.806s.096-2.81-1.076-3.614h0c1.172-.803 1.62-2.308 1.076-3.614s-1.934-2.058-3.336-1.806h0c.254-1.4-.505-2.767-1.822-3.307s-2.835-.095-3.645 1.067h0z"/></g><ellipse fill="#fff" cx="31.271" cy="40" rx="3.026" ry="3"/></g></g></svg>