<svg xmlns="http://www.w3.org/2000/svg" viewBox="0 0 51.34 60" xmlns:v="https://vecta.io/nano"><style><![CDATA[.F{stroke:#197419}.G{stroke-linejoin:round}.H{stroke-width:2}.I{stroke-linecap:round}]]></style><circle cx="27.34" cy="29.41" r="24" fill="#edf4ed"/><path d="M39.38 22.76l-.2-.22a2.6 2.6 0 0 1-.25-3.63l3.93-3.7c1.42-1.36 3.46-1.54 4.52-.42l.2.22c1.07 1.12.77 3.14-.65 4.5L43 23.2a2.62 2.62 0 0 1-3.62-.45zm-19.95 4.92l-5.1-1.88-6.8 21.57 1.14 1a24.15 24.15 0 0 1 3.54 3.87l6.6 1 3.8-3.8c9.7.7 14.2-6.46 15.16-7.6S19.43 27.68 19.43 27.68z" fill="#fff" class="F G H"/><rect x="17.89" y="1" width="24.64" height="41.71" rx="3" fill="#bad5ba" class="F G H"/><g fill="#fff"><path d="M17.9 5.74h24.65v29.4H17.9zM42 41.86l-.2-.18c-1.07-.92-1.47-2.22-.88-2.9l2.48-2.85a2.54 2.54 0 0 1 3.61-.22l.2.18a2.54 2.54 0 0 1 .31 3.57L45 42.3c-.58.7-1.93.48-3-.45z" class="F G H"/><path d="M18.4 27.5a34.23 34.23 0 0 0 1.71-8.5 7.35 7.35 0 0 0-1.54-5 2.08 2.08 0 0 0-3.55.44c-1.94 6.23-2.3 7.92-3.5 11.05-1.35 3.5-.58 8.4-1.25 9.85-.13.28-4.65 6.1-5.9 7.87a32.52 32.52 0 0 1 5.22 2.88 26.46 26.46 0 0 1 3.68 4l1 .1 6-6.2c2.62-7.33.48-13.53-1.86-16.48z"/><path d="M20.3 44c2.58-7.38.44-13.58-1.9-16.53A34.23 34.23 0 0 0 20.12 19a7.35 7.35 0 0 0-1.54-5 2.08 2.08 0 0 0-3.55.44c-1.94 6.23-2.3 7.92-3.5 11.05-1.35 3.5-.58 8.4-1.25 9.85-.13.28-4.65 6.1-5.9 7.87a32.52 32.52 0 0 1 5.22 2.88 26.46 26.46 0 0 1 3.68 4l1 .1" class="F G H I"/></g><path d="M.997 44.402l5.15-5.146L20.73 53.85l-5.15 5.146z" fill="#bad5ba" class="F G H"/><g fill="#fff" class="F G H"><path d="M42 35.2l-.2-.2c-1.1-.94-1.5-2.27-.9-3l2.52-2.9a2.59 2.59 0 0 1 3.64-.09l.2.18a2.59 2.59 0 0 1 .32 3.63l-2.53 2.9c-.6.65-1.96.44-3.07-.5z"/><path d="M42 28.76l-.2-.18c-1.1-.94-1.5-2.27-.9-3l2.52-2.9a2.58 2.58 0 0 1 3.64-.22l.2.18a2.59 2.59 0 0 1 .32 3.63l-2.53 2.9c-.57.73-1.95.53-3.05-.4z"/></g><path d="M27.37 38.92h5.7m.27-7.52v-3a1 1 0 0 1 1-1h2a1 1 0 0 1 1 1v3m-13-4v4" fill="none" class="I F G H"/><rect x="27.34" y="16.41" width="4" height="6" rx="1" fill="none" class="F G H"/><rect x="46.34" y="3.41" width="4" height="6" rx="1" fill="none" class="F G H"/><rect x="29.34" y="3.41" width="4" height="6" rx="1" transform="matrix(-1 0 0 -1 62.67 12.82)" fill="#fff" class="F G H"/><path d="M22.34 9.4v8m16 2v-8" fill="none" class="I F G H"/></svg>