<svg xmlns="http://www.w3.org/2000/svg" width="10" height="10" viewBox="0 0 10 10">
    <g fill="none" fill-rule="evenodd">
        <g fill="#FFDE03">
            <g>
                <g>
                    <path d="M6.63 3.086l3.038.469c.446.089.425.58.043.826L7.67 6.457l.425 2.768c.148.737-.128.938-.744.647L4.993 8.533l-2.337 1.34c-.616.29-.893.089-.744-.648l.425-2.768-2.04-2.076c-.382-.246-.425-.737.043-.826l3.038-.469L4.738.184c.128-.245.404-.245.51 0L6.63 3.086z" transform="translate(-68 -353) translate(0 347) translate(68 6)"/>
                </g>
            </g>
        </g>
    </g>
</svg>
