<svg xmlns="http://www.w3.org/2000/svg" xmlns:xlink="http://www.w3.org/1999/xlink" width="302" height="55"><g fill-rule="nonzero"><path d="M16.008 0s-1.202 28.1-3.05 32.035-5.336 3.815-5.336 3.815L10.672 0H1.52L.756 3.815H3.04L0 39.656h8.387s4.025 0 8.387-3.815c4.353-3.815 4.57-10.672 4.57-10.672L22.865 0h-6.857zm18.667 26.7l.392-3.05H28.2l.765-8.387s-.1-.656.765-1.53 1.52-.765 1.52-.765h6.1l.255-3.05h-7.622s-2.54.328-4.826 2.286-2.286 5.336-2.286 5.336l-.765 16.017s-.364 3.05.765 4.57c1.093 1.475 5.145 1.53 5.145 1.53h6.848l.2-3.05h-4.57s-1.594-.1-2.286-.765-.765-2.286-.765-2.286l.373-6.866h6.857 0zm13.35-3.06l-.765 10.68s-.073 1.03-.765 1.53c-.92.665-2.732 1.147-3.815 0s-.765-4.57-.765-4.57l.765-14.488s-.146-2.15.765-3.05c.83-.83 2.286-.765 2.286-.765h9.15l.246-3.05H43.7s-1.575-.055-4.06 2.286c-2.195 2.067-2.286 4.57-2.286 4.57L36.588 32.8s-.064 3.752 1.52 5.336 3.05 1.53 3.05 1.53h5.336s-.1 3.296-.6 4.544c-.537 1.32-1.675 1.557-1.675 1.557h-5.336v3.04h5.336s4.06-.2 6.1-2.286c2.03-2.094 2.286-8.387 2.286-8.387l.765-14.488h-5.336v-.01zm20.58-12.203c-1.43-1.43-2.577-1.53-5.336-1.53s-3.715-.1-6.1 2.286c-2.386 2.386-2.286 6.1-2.286 6.1l-1.52 21.363h5.336l.765-10.672H64.8l-.765 7.622s0 1.53.765 2.286c.765.765 1.52.765 1.52.765h3.815v-3.05h-.765l1.52-21.353s-.856-2.386-2.286-3.815zm-3.806 14.488h-4.57l.765-11.437s.474-1.52 2.286-1.52 2.286 1.43 2.286 2.286c-.01.856-.765 10.672-.765 10.672zm16-5.335c-1.903-2.413-2.286-3.624-2.286-4.57 0-.956.064-1.584.765-2.286s1.52-.765 1.52-.765h4.57V9.92H81.55s-1.74-.3-4.57 1.53c-3.014 1.94-3.815 4.398-3.815 6.866 0 2.368.665 3.305 1.52 4.58l4.57 6.1c.637 1.2 2.322 2.613 1.52 6.1-.42 1.82-3.05 1.53-3.05 1.53H72.4v3.05h6.857s2.113.173 4.57-2.286c1.457-1.466 3.05-3.825 3.05-6.1.027-3.68-4.16-8.286-6.074-10.7zM94.92 8.113c0-1.266.082-2.103 1.002-3.032s2.404-1.266 2.404-1.266h6.1V0l-5.5.027s-2.97-.164-6.702 2.258c-3.96 2.568-4.57 5.892-4.57 9.15 0 3.132 1.1 4.08 2.25 5.764 1.32 1.958 5.18 6.483 6.02 8.086s3.27 3.415 2.003 8.086c-.628 2.313-4.17 2.468-4.17 2.468H86.9v3.815h9.15s2.66.01 5.9-3.25c1.92-1.94 4.016-4.735 4.016-8.086 0-5.937-5.518-10.945-8.022-14.142-2.522-3.205-3.023-4.8-3.023-6.065zm20.188 1.803h-6.857v3.05h1.52l-1.53 23.64s-.064 1.2.765 2.286c.674.883 1.52.765 1.52.765h9.907v-3.05h-6.857l1.53-26.7zm18.55 0h-3.05c-3.788 0-7.02 3.07-7.212 6.866l-.82 16.017c-.2 3.788 2.723 6.866 6.5 6.866h3.05c3.788 0 7.02-3.07 7.212-6.866l.82-16.017c.2-3.797-2.723-6.866-6.5-6.866zm1.266 7.622l-1.52 16.017c-.2 2.058-.947 3.05-2.258 3.05h-1.056c-1.3 0-2.122-1.23-2.022-3.05l.765-15.252c.3-4.06 1.184-5.336 2.786-5.336h1.056c1.302 0 2.395.892 2.25 4.57zm20.133-7.622H142.1l-.32 3.05h3.815l-2.286 26.7h5.336l2.286-26.7h3.815zm5.784 6.1c0-.956.064-1.584.765-2.286s1.52-.765 1.52-.765h4.57v-3.05h-3.815s-1.74-.3-4.57 1.53c-3.014 1.94-3.815 4.398-3.815 6.866 0 2.368.665 3.305 1.52 4.58l4.57 6.1c.637 1.2 2.14 2.577 1.52 6.1-.237 1.33-3.05 1.53-3.05 1.53h-5.336v3.05h6.857s2.113.173 4.57-2.286c1.457-1.466 3.05-3.825 3.05-6.1 0-3.65-4.2-8.26-6.1-10.672-1.876-2.44-2.258-3.65-2.258-4.6zM186.4 0h-4.098c-5.1 0-9.434 4.098-9.7 9.15L171.5 30.503c-.264 5.054 3.65 9.15 8.75 9.15h4.098c5.1 0 9.434-4.098 9.7-9.15L195.14 9.15C195.404 4.096 191.5 0 186.4 0zm1.712 10.17l-2.05 21.353c-.264 2.75-1.275 4.07-3.032 4.07h-1.42c-1.767 0-2.85-1.64-2.714-4.07l1.03-20.334c.392-5.418 1.594-7.12 3.743-7.12h1.42c1.757 0 3.224 1.193 3.023 6.1zm23.038 1.267c-1.52-1.903-5.673-1.53-5.673-1.53h-9.15l-.428 3.05h1.52l-1.52 26.7h5.336l1.52-25.934s2.94-.328 3.815.765c.464.583.765 1.53.765 1.53l-1.52 19.068s-.046 2.632.765 3.815c.62.9 2.286.765 2.286.765h3.815v-3.05h-1.52l1.52-19.833s0-3.424-1.53-5.336zm41.167 0c-1.52-1.903-5.673-1.53-5.673-1.53h-9.15l-.428 3.05h1.52l-1.52 26.7h5.336l1.52-25.934s2.94-.328 3.815.765c.464.583.765 1.53.765 1.53l-1.52 19.068s-.046 2.632.765 3.815c.62.9 2.286.765 2.286.765h3.815v-3.05h-1.52l1.52-19.833c-.01 0-.01-3.424-1.53-5.336zm-30.497-1.52h-6.857v3.05h1.52l-1.52 23.64s-.064 1.2.765 2.286c.674.883 1.52.765 1.52.765h9.907v-3.05H220.3l1.52-26.7zm6.958 29.74h5.336l2.195-29.74h-5.336zM267.934 26.7l.392-3.05h-6.857l.765-8.387s-.1-.656.765-1.53 1.52-.765 1.52-.765h6.1l.255-3.05h-7.622s-2.54.328-4.826 2.286-2.286 5.336-2.286 5.336l-.765 16.017s-.364 3.05.765 4.57c1.093 1.475 5.145 1.53 5.145 1.53h6.857l.2-3.05h-4.57s-1.594-.1-2.286-.765-.765-2.286-.765-2.286l.373-6.866h6.848 0zm11.01-3.152l-3.242-.474-1.448-2.94c-.027-.064-.1-.1-.164-.1a.18.18 0 0 0-.164.1l-1.448 2.94-3.242.474c-.064.01-.127.055-.146.118a.19.19 0 0 0 .046.182l2.35 2.295-.555 3.233a.18.18 0 0 0 .264.182l2.896-1.512 2.905 1.53c.027.018.055.018.082.018.036 0 .073-.01.1-.036.055-.036.082-.1.073-.173l-.555-3.233 2.35-2.295a.19.19 0 0 0 .046-.182c-.036-.064-.1-.118-.155-.127zM280 23.23l-.228 3.87c-.055 1.065.765 1.93 1.82 1.93h2.668l.036-1.512h-1.757c-.364 0-.592-.346-.565-.856l.2-3.005c.082-1.147.337-1.502.783-1.502h1.612l.036-1.502h-2.595c-1.065 0-1.967 1.512-2.022 2.577zm9.26-2.578h-.856c-1.065 0-2.632 1.03-2.686 2.577l-.228 3.87c-.055 1.065 1.43 1.93 2.495 1.93h.856c1.065 0 2.632-.865 2.686-1.93l.228-3.87c.046-1.594-1.44-2.577-2.495-2.577zm.355 2.796l-.428 3.224c-.055.583-.264.856-.637.856h-.3c-.364 0-.592-.346-.565-.856l.2-3.005c.082-1.147.337-1.502.783-1.502h.3c.373-.01.674.246.637 1.284zm12.248-.856s0-.965-.42-1.502-2.23-.428-2.23-.428h-6.556l-.118 1.502h.42l-.42 6.866h2.13l.42-6.656 1.23-.01-.4 6.666h2.13l.42-6.656s.8-.1 1.047.22a1.61 1.61 0 0 1 .209.428l-.42 4.717s-.01.738.2 1.075c.173.255.628.22.628.22h1.712v-.856h-.42l.437-5.582z" fill="#fff"/><g fill="#ffde03"><path d="M147.006 44.583h2.43c1.102 0 1.912.155 2.413.474s.747.82.747 1.502c0 .464-.11.847-.328 1.147a1.28 1.28 0 0 1-.874.537v.055c.492.11.847.32 1.065.62s.328.7.328 1.202c0 .7-.255 1.266-.774 1.666-.5.4-1.21.6-2.094.6h-2.923v-7.804h.01zm1.648 3.087h.956c.446 0 .774-.073.974-.21s.3-.364.3-.692c0-.3-.11-.5-.328-.647-.22-.127-.565-.19-1.038-.19h-.874v1.74h.01zm0 1.31v2.03h1.075c.455 0 .792-.09 1.01-.264s.328-.437.328-.8c0-.647-.464-.974-1.384-.974h-1.03v.01z"/><use xlink:href="#B"/><use xlink:href="#C"/><path d="M168.223 51.194c.282 0 .628-.064 1.02-.2v1.2c-.4.182-.9.273-1.493.273-.647 0-1.13-.164-1.42-.492-.3-.328-.446-.82-.446-1.484v-2.877h-.783v-.692l.892-.546.474-1.257h1.038v1.266h1.666v1.22h-1.666v2.877c0 .228.064.4.2.5.146.127.3.182.528.182zm9.644-6.61h1.666l-2.65 7.804h-1.803l-2.65-7.804h1.666l1.466 4.644.255.956.164.756c.036-.328.173-.9.4-1.72l1.484-4.635zm4.633 7.904c-.956 0-1.712-.264-2.25-.792s-.8-1.284-.8-2.25c0-1.002.246-1.776.747-2.322s1.193-.82 2.076-.82c.847 0 1.502.237 1.967.72s.7 1.147.7 1.994v.792h-3.84c.018.464.155.82.4 1.084s.62.392 1.075.392a4.55 4.55 0 0 0 1.02-.11c.32-.074.656-.2 1.002-.355v1.257c-.282.146-.592.246-.9.32-.328.064-.72.1-1.184.1zm-.228-5.026c-.346 0-.62.1-.8.328s-.3.528-.337.93h2.286c-.01-.4-.1-.7-.32-.93s-.483-.328-.82-.328zm9.008-1.04v.83l-.938.237c.173.264.255.565.255.892 0 .637-.228 1.138-.674 1.493s-1.065.537-1.858.537l-.3-.018-.237-.027c-.164.127-.255.273-.255.428 0 .237.3.355.892.355h1c.656 0 1.156.137 1.493.42.346.282.52.692.52 1.238a1.82 1.82 0 0 1-.874 1.62c-.584.382-1.42.574-2.504.574-.83 0-1.466-.146-1.903-.437s-.656-.692-.656-1.22a1.27 1.27 0 0 1 .337-.9c.227-.244.555-.4.983-.52-.164-.073-.3-.2-.437-.346-.127-.164-.2-.337-.2-.52 0-.228.064-.42.2-.565.127-.155.32-.3.574-.446a1.66 1.66 0 0 1-.747-.647c-.182-.3-.273-.647-.273-1.056 0-.647.2-1.156.637-1.512.42-.355 1.03-.537 1.812-.537.164 0 .364.018.592.046l.437.064h2.094v.018zm-4.608 6.802c0 .228.1.4.32.528s.52.2.9.2c.583 0 1.038-.082 1.375-.237s.492-.382.492-.656c0-.228-.1-.382-.3-.464s-.5-.127-.9-.127h-.847a1.29 1.29 0 0 0-.747.209.66.66 0 0 0-.291.555zm.592-4.853c0 .328.073.583.22.765.146.2.373.282.674.282s.528-.1.674-.282.2-.446.2-.765c0-.72-.3-1.075-.883-1.075s-.892.355-.892 1.075zm8.486 4.016l-.32-.8h-.046c-.273.346-.555.583-.847.72s-.665.2-1.138.2c-.574 0-1.02-.164-1.357-.492-.328-.328-.492-.792-.492-1.402 0-.637.22-1.102.665-1.402s1.1-.464 2.003-.5l1.038-.036v-.264c0-.6-.3-.9-.93-.9-.474 0-1.038.146-1.685.428l-.537-1.102a4.89 4.89 0 0 1 2.286-.537c.8 0 1.4.173 1.84.52s.637.874.637 1.594v3.98h-1.12v.018zm-.483-2.768l-.628.018c-.474.018-.83.1-1.056.255s-.346.392-.346.72c0 .455.264.692.792.692.373 0 .683-.1.9-.328.228-.22.337-.5.337-.865v-.492z"/><use xlink:href="#C" x="38.036"/><path d="M211.386 50.22c0 .7-.255 1.257-.756 1.666s-1.2.6-2.113.6c-.83 0-1.566-.155-2.213-.474v-1.54c.528.237.974.4 1.34.492a4.18 4.18 0 0 0 1.002.146c.364 0 .637-.073.838-.2s.3-.346.3-.62c0-.155-.046-.3-.127-.4s-.2-.237-.373-.346-.5-.282-1-.528c-.474-.228-.838-.437-1.075-.647s-.428-.446-.574-.72-.2-.592-.2-.956c0-.692.237-1.23.7-1.63s1.1-.592 1.94-.592c.4 0 .792.046 1.156.146a7.71 7.71 0 0 1 1.156.41l-.537 1.284c-.42-.173-.756-.3-1.03-.355a3.51 3.51 0 0 0-.801-.1c-.3 0-.555.073-.72.22s-.255.337-.255.574a.74.74 0 0 0 .1.382c.064.11.173.2.32.32s.5.282 1.047.546c.728.346 1.23.7 1.502 1.047s.4.774.4 1.284zm2.714 2.167h-1.63v-8.305h1.63zM221 49.4c0 .974-.255 1.73-.765 2.276s-1.23.82-2.14.82c-.574 0-1.075-.127-1.512-.373s-.774-.6-1-1.084-.355-1.02-.355-1.64c0-.974.255-1.73.765-2.276.5-.537 1.22-.8 2.15-.8.574 0 1.075.127 1.512.373s.774.6 1 1.075c.228.464.346 1 .346 1.64zm-4.125 0c0 .592.1 1.038.3 1.34s.5.455.947.455.747-.146.938-.455c.2-.3.282-.747.282-1.34s-.1-1.03-.3-1.33c-.2-.3-.5-.446-.947-.446s-.747.146-.938.437-.282.747-.282 1.34zm7.723 1.804c.282 0 .628-.064 1.02-.2v1.2c-.4.182-.9.273-1.493.273-.647 0-1.13-.164-1.42-.492-.3-.328-.446-.82-.446-1.484v-2.877h-.783v-.692l.892-.546.474-1.257h1.038v1.266h1.666v1.22h-1.666v2.877c0 .228.064.4.2.5.146.127.32.182.528.182z"/><use xlink:href="#C" x="66.337"/><path d="M242.173 48.47c0 1.293-.32 2.286-.956 2.978s-1.557 1.038-2.75 1.038-2.113-.346-2.75-1.038-.956-1.694-.956-2.987c0-1.302.32-2.286.965-2.978.647-.683 1.566-1.03 2.76-1.03s2.113.346 2.75 1.038c.62.692.938 1.685.938 2.978zm-5.7 0c0 .874.164 1.53.492 1.967s.83.665 1.484.665c1.32 0 1.976-.874 1.976-2.632s-.656-2.632-1.967-2.632c-.656 0-1.156.22-1.484.665s-.5 1.093-.5 1.967z"/><use xlink:href="#D"/><path d="M251.97 52.387h-1.63v-8.305h1.63zm1.358-7.513c0-.528.3-.792.883-.792s.883.264.883.792c0 .255-.073.446-.22.592-.146.137-.373.2-.665.2-.592 0-.883-.264-.883-.8zm1.694 7.512h-1.63v-5.964h1.63v5.964z"/><use xlink:href="#D" x="12.993"/><use xlink:href="#B" x="109.363"/></g></g><defs ><path id="B" d="M156.722 52.487c-.956 0-1.712-.264-2.25-.792s-.8-1.284-.8-2.25c0-1.002.246-1.776.747-2.322s1.193-.82 2.076-.82c.847 0 1.502.237 1.967.72s.7 1.147.7 1.994v.792h-3.843c.018.464.155.82.4 1.084s.62.392 1.075.392c.355 0 .7-.036 1.02-.11s.656-.19 1.002-.355v1.257c-.282.146-.592.246-.91.32s-.72.09-1.184.09zm-.228-5.026c-.346 0-.62.11-.8.328s-.3.528-.337.93h2.286c-.01-.4-.11-.7-.32-.93s-.474-.328-.82-.328z"/><path id="C" d="M164.517 50.61c0 .6-.21 1.075-.637 1.402s-1.065.483-1.903.483c-.437 0-.8-.027-1.11-.09s-.592-.146-.856-.255v-1.348c.3.146.647.264 1.02.355s.7.146 1.002.146c.592 0 .883-.173.883-.5 0-.127-.036-.228-.118-.3s-.21-.173-.4-.273l-.765-.355c-.455-.19-.792-.373-1.01-.537a1.53 1.53 0 0 1-.474-.565c-.1-.21-.146-.474-.146-.783 0-.528.21-.938.62-1.23s.993-.437 1.748-.437a4.85 4.85 0 0 1 2.094.474l-.492 1.175-.838-.32c-.264-.082-.528-.118-.792-.118-.483 0-.72.127-.72.392 0 .146.073.273.228.382s.492.264 1.02.474c.464.19.8.364 1.02.528a1.65 1.65 0 0 1 .483.565c.11.21.155.464.155.756z"/><path id="D" d="M248.957 52.387h-1.63V48.9c0-.428-.073-.756-.228-.965-.155-.22-.4-.32-.728-.32-.455 0-.783.155-.983.455s-.3.8-.3 1.512v2.805h-1.63v-5.964h1.248l.22.765h.09c.182-.29.428-.5.747-.656s.683-.22 1.084-.22c.692 0 1.22.19 1.575.565s.537.92.537 1.62v3.888z"/></defs></svg>