<svg xmlns="http://www.w3.org/2000/svg" width="56" height="58" fill-rule="nonzero"><ellipse fill="#ecedf3" cx="28.551" cy="30.673" rx="26.824" ry="26.769"/><path d="M44.198 35.135l-2.235 5.845-3.744 5.276c-2.722 2.195-6.124 3.378-9.623 3.346-5.765.147-11.072-3.122-13.524-8.332a15.21 15.21 0 0 1-1.263-.692l-.905-5.4V27.36L14.02 22.9l3.353-5.577 4.47-2.23 4.47 5.577 6.706 5.577 10.06 3.346 1.118 5.543z" fill="#fff"/><path d="M47.64 27.25a8.52 8.52 0 0 1 1.028 3.982c0 3.625-2.436 6.893-6.326 9.224a13.23 13.23 0 0 1-4.169 5.8l3.744-5.276 2.235-5.845-1.118-5.577-10.06-3.346-6.706-5.577-4.47-5.577-4.47 2.23-3.353 5.577-1.118 4.462v7.808l.905 5.4c-3.956-2.33-6.45-5.633-6.45-9.313a8.52 8.52 0 0 1 1.028-3.982 18.47 18.47 0 0 1-1.028-6.057c0-10.775 9.254-19.52 20.676-19.52s20.676 8.745 20.676 19.52a18.47 18.47 0 0 1-1.028 6.057z" fill="#b9bdd4"/><g fill="#191f76"><path d="M37.414 47.828a1.12 1.12 0 0 1-.894-.446c-.37-.493-.27-1.192.224-1.562 3.766-2.822 5.767-8.343 5.845-12.358v-3.714c0-.616.5-1.115 1.118-1.115s1.118.5 1.118 1.115v3.714c0 4.562-2.336 10.864-6.706 14.12a1.12 1.12 0 0 1-.704.245z"/><path d="M46.154 30.863c-4.47 0-11.176-2.7-17.055-6.893-3.085-2.23-10.27-7.997-10.27-14.143 0-.616.5-1.115 1.118-1.115s1.118.5 1.118 1.115c0 6.692 14.753 18.805 25.09 18.805.617 0 1.118.5 1.118 1.115s-.5 1.115-1.118 1.115z"/><path d="M22.538 49.545a1.12 1.12 0 0 1-.458-.1c-6.292-2.904-10.432-9.07-10.73-15.983V28.51c0-5.722 5.264-13.005 9.422-14.723a1.12 1.12 0 0 1 1.453.591c.24.567-.025 1.22-.592 1.46-3.442 1.428-8.047 7.953-8.047 12.67v4.952c.324 6.026 3.945 11.384 9.422 13.942.495.2.77.74.655 1.265s-.587.892-1.124.877z"/></g><path d="M1.727 25.096h5.588V36.25H1.727zm46.94 0h5.588V36.25h-5.588z" fill="#fff"/><g fill="#191f76"><path d="M52.256 38.336h-2.492c-.617 0-1.118-.5-1.118-1.115s.5-1.115 1.118-1.115h2.492a1.53 1.53 0 0 0 1.375-1.651V27.54a1.53 1.53 0 0 0-1.375-1.651h-2.492c-.617 0-1.118-.5-1.118-1.115s.5-1.115 1.118-1.115h2.492c2.067.085 3.68 1.818 3.6 3.882v6.915c.07 2.064-1.543 3.797-3.6 3.882z"/><path d="M33.904 53.282H32.43c-.617 0-1.118-.5-1.118-1.115s.5-1.115 1.118-1.115h1.475c7.52-.012 13.612-6.092 13.624-13.597v-3.993c0-.616.5-1.115 1.118-1.115s1.118.5 1.118 1.115v3.97c0 8.745-7.097 15.837-15.86 15.85z"/></g><path d="M33.647 52.167a2.49 2.49 0 0 1-2.47 2.487h-3.744a2.49 2.49 0 0 1-2.492-2.487c-.003-.662.258-1.297.726-1.766s1.103-.732 1.766-.732h3.744a2.49 2.49 0 0 1 2.47 2.498z" fill="#fff"/><path d="M31.177 55.77h-3.744a3.6 3.6 0 0 1-3.6-3.603c0-2 1.616-3.603 3.6-3.603h3.744a3.6 3.6 0 0 1 3.6 3.603c0 2-1.616 3.603-3.6 3.603zm-3.744-4.975c-.76 0-1.375.614-1.375 1.372s.615 1.372 1.375 1.372h3.744c.76 0 1.375-.614 1.375-1.372s-.615-1.372-1.375-1.372h-3.744zm-19.96-12.46H3.728c-2.067-.085-3.68-1.818-3.6-3.882V27.54a3.76 3.76 0 0 1 3.6-3.882h2.626V20.2C6.354 8.823 18 0 28.06 0s21.705 8.823 21.705 20.2v9.537c0 .616-.5 1.115-1.118 1.115s-1.118-.5-1.118-1.115V20.2c0-8.32-8.505-17.98-19.47-17.98S8.6 11.9 8.6 20.2v17c0 .616-.5 1.115-1.118 1.115zM3.728 25.888a1.53 1.53 0 0 0-1.375 1.651v6.915a1.53 1.53 0 0 0 1.375 1.651h2.626V25.888H3.728z" fill="#191f76"/></svg>