<svg xmlns="http://www.w3.org/2000/svg" viewBox="0 0 48.83 58"><circle cx="24.62" cy="32.03" r="24.21" fill="#ecedf3"/><path d="M44.3 6.18v23.3a22.56 22.56 0 0 1-4.46 13.58 47.68 47.68 0 0 1-17.25 14 47.67 47.67 0 0 1-17.26-14A22.56 22.56 0 0 1 .86 29.49V6.18a2.27 2.27 0 0 1 3.45-2 12.51 12.51 0 0 0 6.84 2 12.52 12.52 0 0 0 9.63-4.5 2.32 2.32 0 0 1 3.59 0A12.52 12.52 0 0 0 34 6.24a12.51 12.51 0 0 0 6.84-2 2.27 2.27 0 0 1 3.45 1.94z" fill="#b9bdd4"/><path d="M5.44 9.82a16.89 16.89 0 0 0 5.71 1 17.23 17.23 0 0 0 11.43-4.38A17.21 17.21 0 0 0 34 10.81a17 17 0 0 0 5.72-1V29.5a18.1 18.1 0 0 1-3.54 10.83A43.73 43.73 0 0 1 22.59 52 44.07 44.07 0 0 1 9 40.32a18.09 18.09 0 0 1-3.56-10.83V9.82z" fill="#fff"/><path d="M5.46 23.3a1.15 1.15 0 1 0 0-2.29 1.15 1.15 0 0 0 0 2.29zM43.52 3.36a3 3 0 0 0-3.14.11A11.62 11.62 0 0 1 34 5.35a11.68 11.68 0 0 1-9-4.18 3.2 3.2 0 0 0-4.95 0 11.67 11.67 0 0 1-8.95 4.18 11.62 11.62 0 0 1-6.27-1.88A3 3 0 0 0 3.18 3 3.2 3.2 0 0 0 0 6.18v23.3A23.55 23.55 0 0 0 4.63 43.6a48.37 48.37 0 0 0 17.62 14.33 1 1 0 0 0 .71 0A48.3 48.3 0 0 0 40.57 43.6a23.56 23.56 0 0 0 4.64-14.11V6.18a3.2 3.2 0 0 0-1.69-2.82zm-.1 26.13a21.82 21.82 0 0 1-4.28 13 47.29 47.29 0 0 1-16.43 13.59l-.1.06-.12-.06A47.4 47.4 0 0 1 6.06 42.53a21.74 21.74 0 0 1-4.27-13V6.18a1.43 1.43 0 0 1 .74-1.26A1.3 1.3 0 0 1 3.85 5a13.3 13.3 0 0 0 7.33 2.17A13.43 13.43 0 0 0 21.5 2.31a1.45 1.45 0 0 1 2.22 0A13.38 13.38 0 0 0 34 7.13 13.29 13.29 0 0 0 41.35 5a1.29 1.29 0 0 1 1.33 0 1.44 1.44 0 0 1 .75 1.25zm-2.8-19.66V29.5a18.94 18.94 0 0 1-3.71 11.36A44.5 44.5 0 0 1 23 52.78a.93.93 0 0 1-.86 0A45 45 0 0 1 8.29 40.85a19 19 0 0 1-3.72-11.36v-2.8a.9.9 0 0 1 1.79 0v2.78a17.19 17.19 0 0 0 3.35 10.29A43.16 43.16 0 0 0 22.49 50.9l.13.07.12-.07A42.94 42.94 0 0 0 35.5 39.78a17.13 17.13 0 0 0 3.36-10.29V11.05l-.32.08a18 18 0 0 1-4.54.57 18.09 18.09 0 0 1-11.26-4l-.16-.13-.17.13a18.09 18.09 0 0 1-11.26 4 18 18 0 0 1-4.51-.57l-.3-.08v6.52a.9.9 0 0 1-1.79 0V9.83A.89.89 0 0 1 5.76 9a16.42 16.42 0 0 0 5.42.93A16.28 16.28 0 0 0 22 5.77a.9.9 0 0 1 1.19 0A16.28 16.28 0 0 0 34 9.92 16.38 16.38 0 0 0 39.45 9a.87.87 0 0 1 .81.11.88.88 0 0 1 .37.72z" fill="#191f76"/><g stroke="#191f76" stroke-linejoin="round" stroke-width="2"><path d="M19.56,29.68V22.06a3,3,0,0,1,6.09,0v7.62H29V22.22a6.37,6.37,0,0,0-12.73,0v7.46Z" fill="#fff"/><rect x="14.03" y="26.92" width="17.15" height="12.17" rx="1.11" fill="#b9bdd4"/></g><path d="M23.9 35.53v-2.3a2 2 0 0 0-1.49-3.7 2 2 0 0 0-.53 3.7v2.3a1 1 0 1 0 2.02 0z" fill="#191f76"/></svg>