<svg xmlns="http://www.w3.org/2000/svg" width="60" height="55"><ellipse cx="30" cy="30.167" fill="#ecedf3" rx="24" ry="24.075"/><path fill="#b9bdd4" d="M8.07 9.1H51.93c1.143 0 2.07.93 2.07 2.076V43.2H6V11.176C6 10.03 6.926 9.1 8.07 9.1z"/><path fill="#fff" d="M58.966 42.205H37.003l-1.034 1.037H24l-1.034-1.037H1.034v2.003c.006 1.66 1.346 3.003 3 3.01h51.963c1.644-.017 2.97-1.36 2.97-3v-2.002z"/><g fill="#191f76"><path d="M55.997 48.224H4.003A4.01 4.01 0 0 1 0 44.208v-2.003c0-.573.463-1.038 1.034-1.038h21.963a1.03 1.03 0 0 1 .713.29l.704.717h11.172l.704-.716a1.03 1.03 0 0 1 .713-.291h21.963c.57 0 1.034.465 1.034 1.038v2.003a4.01 4.01 0 0 1-4.003 4.016zm-54-5.023v1.038c0 .533.21 1.044.588 1.42a2 2 0 0 0 1.418.583h51.994a2 2 0 0 0 1.418-.583c.377-.376.588-.887.588-1.42V43.2H37.417l-.714.716c-.19.183-.44.287-.703.3H24c-.263-.003-.514-.107-.703-.3l-.714-.716H1.997z"/><path d="M54 43.2c-.571 0-1.034-.464-1.034-1.037V23.142c-.105-.42.06-.86.414-1.106.354-.246.824-.246 1.178 0s.52.686.414 1.106v19.063c-.02.533-.44.964-.972.996z"/><path d="M43.83 8.094h8.172c1.632-.017 2.972 1.3 3 2.927V41.23c-.115.462-.53.786-1.003.786s-.888-.324-1.003-.786V11.02c-.033-.55-.487-.977-1.035-.976H43.8c-.537 0-.973-.436-.973-.975s.436-.976.973-.976h.04zm-28.665 0H7.003c-1.656 0-3 1.348-3 3v31.132c.123.452.532.765 1 .765s.876-.313.998-.765V11.104c0-.573.463-1.038 1.034-1.038h8.163c.42.115.867-.047 1.118-.405s.25-.835 0-1.193-.698-.52-1.118-.405l-.03.03z"/></g><g fill="#fff"><path d="M36.528 3.072l-6.445-1.277-1.686.208-.725 1.41-5.97-.26-1.955.508L18.94 5.5l-3.475.643-4.2 1.266-.26 1.37-2.7 1.183-3.393 1.494L3.56 12.63l-.207.85 1.272 3.103 3.724 8.032 6.445 13.522 1.014.81 2.162-.726 7.5-3.362 4.055-1.298 3.817-.404L35.98 33z"/><path d="M10.76 8.852l-2.13.85L4.5 11.85l-.952 1.038v1.286l8.048 17.154 3.704 7.15.848.446 3.796-1.567c.207 0 3.414-1.95 3.414-1.95l-1.914-.633-3.206.633-1.273-.633L10.76 8.852z"/><path d="M18.56 5.562l-2.245.28-4.893 1.516-.228 1.7 5.12 21.19 1.272 5.137H19.5l7.045-1.92-.64-.643h-5.12L19.5 32.18z"/><path d="M27.166 3.383L25.47 3.3l-5.317-.03-1.283 1.287.64 17.984v9.63l.642.644H29.1l-.63-1.287-4.49-.644-1.273-.643z"/><path d="M36.124 2.99l-2.762-.54-4.883-.457-1.282 1.93-4.48 26.327 2.555 1.287 7.045.643-5.762-3.206-.64-.644z"/></g><g fill="#191f76"><path d="M26.38 13.47l-.9-1.962.414-2.127.9 1.96z"/><path d="M55.738 8.634L38.98 1.495c-.575-.253-1.226-.265-1.8-.033a2.35 2.35 0 0 0-1.294 1.267L33.6 8.115l-.807 1.993-7.138 16.873a2.35 2.35 0 0 0-.032 1.819c.234.585.693 1.052 1.274 1.294l3.248 1.38-5.938-1.193a1.03 1.03 0 0 1-.685-.442 1.04 1.04 0 0 1-.153-.803l3-15.545 1.997-10.305c.05-.278.2-.524.444-.68a1.03 1.03 0 0 1 .797-.15l4.2.757c.287-.02.526-.23.584-.512s-.08-.57-.335-.702l-4.2-.86c-.61-.122-1.24.006-1.753.356s-.866.9-.98 1.5L25.862 9.34l-.414 2.127-3.33 17.33a2.33 2.33 0 0 0 .354 1.753c.345.514.88.87 1.487.987l4.065.788-6.796.125c-.572 0-1.035-.465-1.035-1.038l-.538-26.358c0-.573.463-1.038 1.035-1.038l4.282-.073a.64.64 0 0 0 .56-.638c0-.324-.24-.597-.56-.638l-4.282.03c-.618.01-1.205.268-1.634.713a2.34 2.34 0 0 0-.653 1.664l.456 26.348a2.34 2.34 0 0 0 2.369 2.303l4.344-.083-6.806 1.578c-.274.068-.563.02-.8-.13a1.04 1.04 0 0 1-.462-.67L11.607 8.75c-.07-.277-.024-.57.128-.813a1.03 1.03 0 0 1 .679-.463l4.138-.965c.307-.1.484-.434.4-.753s-.376-.53-.7-.493l-4.138.965a2.34 2.34 0 0 0-1.474 1.035 2.35 2.35 0 0 0-.305 1.778l5.907 25.673a2.33 2.33 0 0 0 1.034 1.458c.524.33 1.157.436 1.76.296l2.44-.57-4.914 2.303a1.03 1.03 0 0 1-.814.043c-.266-.098-.48-.3-.592-.562L4.138 13.802c-.125-.255-.14-.55-.043-.817s.3-.482.56-.594l3.828-1.816c.32-.15.457-.53.3-.85-.072-.154-.202-.273-.36-.33a.63.63 0 0 0-.487.029l-3.88 1.805a2.36 2.36 0 0 0-1.127 3.114l11.1 23.867a2.33 2.33 0 0 0 1.317 1.214c.583.212 1.226.182 1.786-.082l10.345-4.836 4.23-.976h2.297l1.78.343-.85-.364.85.364 7.882 3.352c1.18.5 2.54-.047 3.052-1.225l.527-1.256L57 11.695a2.35 2.35 0 0 0-1.252-3.061z"/></g><path fill="#fff" d="M46.076 34.245l-.56 1.214c-.102.268-.3.48-.575.59a1.03 1.03 0 0 1-.821-.018l-16.77-7.15c-.262-.106-.47-.314-.576-.576s-.1-.557.017-.815L37.086 3.238a1.04 1.04 0 0 1 .571-.584 1.03 1.03 0 0 1 .815.013l3.942 1.68 12.838 5.46c.274.094.496.3.612.566a1.04 1.04 0 0 1-.002.835l-.58 1.245-9.206 21.792z"/><path fill="#191f76" d="M22.976 5.5a3.9 3.9 0 0 0-.673 1.037 4.98 4.98 0 0 0-.248 1.11v.29h-.372v-.3a3.91 3.91 0 0 1 .31-1.163c.155-.374.364-.724.62-1.037h-1.147v.32h-.32v-.57h1.852l-.02.3zm-.58 5.686h-.673c-.09 0-.165-.074-.165-.166s.074-.166.165-.166h.693c.092 0 .166.075.166.166s-.074.166-.166.166h-.02zm.165-.508c-.2-.003-.373-.073-.517-.197-.142.122-.32.19-.507.197-.33-.026-.59-.3-.617-.62s.192-.63.513-.708c-.005-.038-.005-.077 0-.115.012-.34.3-.612.632-.612.164-.003.323.06.44.175s.187.272.2.437c.005.038.005.077 0 .115.34.06.58.37.553.716s-.3.615-.657.622l-.03-.01zM7.055 13.5l-.124-.207-.724.342.238.737a1.15 1.15 0 0 1 .134-.176c.055-.062.122-.112.197-.145.2-.104.44-.104.64 0 .218.1.4.293.486.518a.93.93 0 0 1 .073.696c-.08.227-.253.41-.476.498a.88.88 0 0 1-.6.072.68.68 0 0 1-.434-.415l.3-.145c.046.123.144.218.268.26.113.046.24.046.352 0a.48.48 0 0 0 .259-.312c.024-.16-.001-.322-.073-.467a.69.69 0 0 0-.31-.332c-.123-.063-.27-.063-.393 0-.104.038-.194.107-.26.197-.027.077-.027.162 0 .24l-.3.104-.538-1.463 1.304-.613.227.488-.248.125zm2.13 4.96l-.63.292c-.038.02-.082.027-.123.015s-.075-.04-.095-.078c-.03-.083.004-.176.083-.218l.63-.3a.16.16 0 0 1 .213.078.16.16 0 0 1-.078.212v-.01zm-.072-.528c-.173.067-.365.067-.538 0a.83.83 0 0 1-.383.394.68.68 0 0 1-.91-.311c-.14-.306-.035-.67.248-.85l-.062-.104a.63.63 0 0 1 1.148-.446v.104c.346-.127.728.052.854.4a.67.67 0 0 1-.399.855l.042-.04zm4.717-9.506a1.31 1.31 0 0 1 .28 0c.078-.012.158-.012.237 0v.3c-.065-.01-.13-.01-.196 0h-.25a.55.55 0 0 0-.393.312c-.065.223-.065.46 0 .685.06-.082.133-.152.218-.208.093-.062.2-.105.3-.124.213-.066.445-.024.62.114.186.14.315.343.363.57a1.1 1.1 0 0 1-.073.737c-.1.21-.314.357-.548.395-.243.067-.503.017-.703-.135a1.17 1.17 0 0 1-.445-.747l-.083-.353c-.102-.342-.084-.708.052-1.038a.95.95 0 0 1 .61-.498zm.155 1.235c-.11.027-.21.076-.3.145-.07.067-.12.154-.145.25v.217a.93.93 0 0 0 .29.53.49.49 0 0 0 .435.114c.14-.028.257-.132.3-.27.047-.163.047-.336 0-.498-.032-.158-.116-.3-.238-.405-.1-.07-.222-.098-.342-.083zm1.407 4.576l-.672.156c-.043.012-.09.006-.127-.018s-.063-.062-.07-.107c-.01-.04 0-.084.023-.12s.06-.06.1-.066l.673-.156c.085-.02.17.03.196.114.014.088-.04.172-.124.197zm.04-.53c-.183.042-.375.012-.537-.083-.107.158-.27.27-.456.31a.67.67 0 0 1-.764-.459c-.103-.325.052-.675.36-.817a.6.6 0 0 1 0-.104c-.08-.34.132-.682.472-.763s.68.132.76.473c.005.04.005.083 0 .124.333-.03.64.184.724.51.036.182-.003.37-.108.523a.68.68 0 0 1-.45.286zm15.6-8.852a.56.56 0 0 1-.206.343c-.105.092-.235.15-.373.166.135.084.245.202.32.342a.66.66 0 0 1 .053.426.73.73 0 0 1-.362.519 1.14 1.14 0 0 1-1.263-.27.74.74 0 0 1-.113-.623c.03-.144.107-.275.217-.374.12-.102.268-.166.424-.186a.78.78 0 0 1-.269-.312.6.6 0 0 1 0-.384c.028-.208.15-.39.33-.498a.81.81 0 0 1 .61-.072c.2.036.402.146.538.31.127.178.16.405.093.612zm-.548 1.194a.52.52 0 0 0-.062-.395c-.082-.113-.204-.19-.34-.218s-.276-.01-.393.063-.194.196-.218.332c-.034.13-.012.27.062.384.083.11.205.186.342.207.126.053.267.053.393 0a.46.46 0 0 0 .197-.373h.02zm.186-1.256a.49.49 0 0 0-.051-.363c-.062-.102-.163-.174-.28-.197a.46.46 0 0 0-.341.062c-.097.078-.163.19-.186.31-.03.12-.013.247.052.353a.41.41 0 0 0 .279.187c.116.032.24.013.34-.052.094-.073.154-.182.166-.3h.02zm-1.2 5.116l-.672-.145c-.044-.007-.083-.033-.106-.07s-.03-.085-.018-.127c.02-.084.1-.138.186-.125l.683.145c.088.02.143.11.124.197-.025.086-.1.14-.197.125zm.27-.467c-.184-.044-.348-.15-.465-.3a.75.75 0 0 1-.538.082.67.67 0 0 1-.543-.773c.063-.364.408-.608.77-.545-.005-.04-.005-.083 0-.124.063-.33.372-.553.704-.51.162.033.305.13.396.267s.124.308.1.47v.114c.312.116.496.44.435.768-.035.19-.145.355-.306.46a.69.69 0 0 1-.543.091zm8.866 9.38l-.766-.332c-.064-.028-.14-.02-.195.023s-.086.112-.078.182a.2.2 0 0 0 .118.158l.766.322a.2.2 0 0 0 .15.002c.05-.02.088-.058.108-.106.037-.097-.01-.206-.103-.25zM39 20.516c-.17.363-.574.555-.962.457a.76.76 0 0 1 0 .135c-.17.374-.61.54-.983.373-.183-.07-.33-.214-.406-.396a.73.73 0 0 1 .003-.569l.062-.124a.81.81 0 0 1-.331-1.038c.183-.4.634-.57 1.034-.415a.97.97 0 0 1 .476.456.94.94 0 0 1 .652 0c.213.083.383.25.47.462a.84.84 0 0 1-.015.659zm-1.997 2.076l-.796-.322c-.048-.02-.102-.022-.15-.002s-.088.057-.11.106c-.037.1.008.212.104.26l.765.322c.048.02.103.02.15.002a.2.2 0 0 0 .108-.106c.043-.093.012-.203-.073-.26zm.394 1.712c-.165.364-.57.553-.952.446v.145c-.195.336-.61.474-.964.32a.77.77 0 0 1-.433-.922c.02-.043.045-.085.073-.124a.8.8 0 0 1-.278-1.043c.19-.368.63-.528 1.012-.368a.93.93 0 0 1 .476.456c.2-.083.442-.083.652 0a.83.83 0 0 1 .414 1.09zM39 17.87l-.724-.332c-.095-.043-.14-.152-.104-.25.02-.048.06-.086.108-.105s.103-.02.15.002l.766.322c.1.043.146.16.103.26s-.16.147-.26.104H39zm.424-.488a.93.93 0 0 1-.476-.457.88.88 0 0 1-.651 0 .8.8 0 0 1-.46-.99c.13-.4.55-.63.956-.525a.76.76 0 0 1 0-.135c.163-.386.608-.568.993-.404a.76.76 0 0 1 .404.996c-.02.044-.045.085-.073.125a.82.82 0 0 1 .342 1.037c-.208.362-.65.513-1.035.353zm1.18-3.3l-.765-.322c-.065-.027-.1-.088-.118-.158s.02-.14.078-.18.13-.052.195-.024l.766.322c.096.047.14.16.103.26-.02.048-.06.086-.108.105a.19.19 0 0 1-.15-.002zm.425-.488a.89.89 0 0 1-.476-.456c-.214.077-.448.077-.662 0a.81.81 0 0 1-.424-.99c.13-.4.53-.62.93-.536-.003-.045-.003-.1 0-.135.163-.387.608-.568.994-.404a.76.76 0 0 1 .403.996.35.35 0 0 1-.072.124c.39.204.544.687.34 1.08s-.684.546-1.076.342l.042-.02zm.352 7.524l-.756-.363c-.063-.026-.107-.084-.116-.15s.02-.135.072-.177.126-.05.19-.025l.765.322c.087.048.124.153.088.245s-.137.143-.232.118l-.01.03zm.423-.488a.97.97 0 0 1-.475-.456.95.95 0 0 1-.652 0 .82.82 0 0 1-.455-1.038c.16-.368.565-.562.95-.457.01-.047.03-.092.052-.135.18-.353.603-.506.968-.35s.547.566.418.942l-.062.124a.81.81 0 0 1 .331 1.038c-.213.38-.686.526-1.076.332zm3.166.893l-.766-.322c-.065-.047-.152-.05-.22-.007a.2.2 0 0 0-.088.202c.014.08.075.14.153.158l.766.32c.046.025.1.03.15.01s.088-.055.108-.103c.038-.1-.007-.213-.103-.26zm.393 1.702c-.16.368-.565.562-.952.456v.135c-.162.387-.607.568-.993.405a.76.76 0 0 1-.403-.996c.02-.044.044-.086.072-.125a.8.8 0 0 1-.063-1.385.8.8 0 0 1 .798-.037.98.98 0 0 1 .476.457.88.88 0 0 1 .651 0c.2.088.356.253.434.458s.07.432-.02.632zM43.366 25.3l-.766-.332c-.096-.025-.195.026-.232.118s0 .197.087.246l.755.32c.048.02.103.022.15.002s.087-.057.108-.106a.19.19 0 0 0 .001-.146c-.02-.047-.057-.084-.104-.103zm.393 1.67a.83.83 0 0 1-.952.457c.003.045.003.1 0 .135-.163.395-.615.583-1.01.42s-.582-.616-.42-1.012c.016-.046.04-.088.073-.124-.253-.132-.417-.4-.43-.675a.8.8 0 0 1 .367-.71.79.79 0 0 1 .797-.037c.21.085.382.25.476.457.214-.078.448-.078.662 0 .204.084.364.247.446.452s.078.435-.01.637zm1.613-6.403l-.765-.332a.19.19 0 0 1-.116-.15c-.01-.068.018-.136.072-.177a.19.19 0 0 1 .189-.026l.765.322c.087.048.124.154.087.246s-.136.142-.232.117zm.414-.488a.97.97 0 0 1-.476-.456c-.2.078-.44.078-.65 0a.81.81 0 0 1-.424-.99c.13-.39.53-.62.93-.536-.008-.044-.008-.1 0-.134.18-.354.604-.507.968-.35a.76.76 0 0 1 .419.942v.114a.81.81 0 0 1 .33 1.038.81.81 0 0 1-.47.415.82.82 0 0 1-.626-.041zm1.18-3.3l-.766-.32c-.048-.02-.086-.06-.104-.1s-.013-.103.01-.15c.043-.094.152-.14.25-.103l.765.332c.047.018.085.055.104.102s.02.1 0 .147-.06.086-.11.106a.2.2 0 0 1-.15-.002zm.424-.487c-.21-.086-.382-.25-.476-.457-.2.083-.443.083-.652 0a.8.8 0 0 1-.46-.991c.13-.4.55-.63.957-.524v-.135c.162-.387.607-.568.993-.404a.76.76 0 0 1 .403.996.77.77 0 0 1-.072.124.8.8 0 0 1 .277 1.044c-.2.367-.63.527-1.012.368l.042-.02zm-8.7-9.475c.146.078.32.078.466 0a1.16 1.16 0 0 0 .403-.602.53.53 0 0 1-.269.104c-.106 0-.212-.02-.3-.062a.82.82 0 0 1-.487-.477c-.067-.242-.045-.5.063-.727a1.04 1.04 0 0 1 .496-.55.78.78 0 0 1 .662 0 .91.91 0 0 1 .517.519 1.12 1.12 0 0 1-.082.82l-.197.456a1.49 1.49 0 0 1-.61.779.9.9 0 0 1-.766 0 1.24 1.24 0 0 1-.258-.146c-.08-.05-.152-.1-.218-.176l.166-.228a.95.95 0 0 0 .186.166l.238.124zm.403-.8c.115.035.237.035.352 0a.58.58 0 0 0 .27-.124l.113-.27c.083-.174.112-.37.083-.56a.47.47 0 0 0-.3-.322c-.122-.07-.272-.07-.393 0-.15.1-.264.23-.32.395-.08.15-.1.323-.062.488-.007.173.097.332.258.394zM37.76 10.16l-.642-.27a.16.16 0 0 1-.09-.09c-.016-.042-.013-.09.007-.128s.047-.07.086-.086.083-.015.12.003l.642.27c.082.037.12.134.083.217-.016.04-.047.07-.086.086a.15.15 0 0 1-.121-.003zm.34-.405a.79.79 0 0 1-.393-.415.72.72 0 0 1-.548 0c-.167-.067-.3-.198-.37-.364a.68.68 0 0 1-.003-.518.68.68 0 0 1 .797-.384V7.96a.63.63 0 0 1 .817-.31.62.62 0 0 1 .341.809c.006.034.006.07 0 .103.286.174.404.53.28.84-.075.17-.214.304-.387.37s-.365.06-.534-.016zm6.197 22.072a.5.5 0 0 0-.466 0c-.2.13-.333.32-.403.54a.5.5 0 0 1 .269-.104.83.83 0 0 1 .31.062.8.8 0 0 1 .476.478.96.96 0 0 1 0 .726c-.095.24-.276.437-.507.55-.207.093-.445.093-.652 0a.88.88 0 0 1-.517-.519 1.12 1.12 0 0 1 .083-.82l.186-.456a1.44 1.44 0 0 1 .62-.778c.243-.115.524-.115.766 0 .1.04.177.09.26.145.077.048.147.107.207.176l-.156.24-.186-.166-.3-.073zm-.404.8a.55.55 0 0 0-.352-.052c-.1.013-.194.056-.27.124l-.113.27c-.1.173-.12.37-.083.56.036.153.15.276.3.322a.42.42 0 0 0 .393 0 .78.78 0 0 0 .32-.394c.07-.153.09-.323.063-.488-.014-.154-.114-.287-.26-.342zm1.345-4.14l.64.27a.15.15 0 0 1 .085.086c.016.04.015.083-.002.122-.038.082-.132.123-.217.093l-.63-.27c-.083-.038-.12-.135-.083-.218.013-.04.044-.074.084-.1s.085-.013.123.007zm-.352.404c.175.074.316.21.393.385.177-.067.372-.067.55 0 .344.148.512.54.382.892a.68.68 0 0 1-.796.384.45.45 0 0 1 0 .104.63.63 0 0 1-.8.285c-.3-.126-.456-.46-.36-.773l.062-.103a.67.67 0 0 1-.284-.898.66.66 0 0 1 .895-.285l-.042.01z"/></svg>