<svg xmlns="http://www.w3.org/2000/svg" width="67" height="58" fill-rule="nonzero"><ellipse fill="#ecedf3" cx="27.254" cy="30.706" rx="27.254" ry="27.294"/><path d="M11.356 1.137h49.966c1.254 0 2.27 1.018 2.27 2.275v36.392H9.085V3.412c0-1.256 1.017-2.275 2.27-2.275z" fill="#b9bdd4"/><path d="M38.6 38.667l-1.136 1.137h-5.678l-1.136-1.137H3.407c0 2.512 2.034 4.55 4.542 4.55h39.746v-4.55H38.6z" fill="#fff"/><g fill="#191f76"><path d="M9.085 39.804c-.627 0-1.136-.51-1.136-1.137V3.412A3.41 3.41 0 0 1 11.356 0h49.966a3.41 3.41 0 0 1 3.407 3.412v2.275c0 .628-.508 1.137-1.136 1.137s-1.136-.51-1.136-1.137V3.412c0-.628-.508-1.137-1.136-1.137H11.356c-.627 0-1.136.51-1.136 1.137v35.255c0 .628-.508 1.137-1.136 1.137z"/><path d="M47.695 44.353H7.95c-3.136 0-5.678-2.546-5.678-5.686 0-.628.508-1.137 1.136-1.137H30.66a1.13 1.13 0 0 1 .806.33l.795.807h4.747l.795-.807a1.13 1.13 0 0 1 .806-.33h9.085a1.14 1.14 0 0 1 1.136 1.137c0 .627-.508 1.137-1.136 1.137h-8.62l-.795.807a1.13 1.13 0 0 1-.806.33h-5.678a1.13 1.13 0 0 1-.806-.33l-.795-.807H4.735a3.41 3.41 0 0 0 3.214 2.275h39.746a1.14 1.14 0 0 1 1.136 1.137c0 .627-.508 1.137-1.136 1.137zM14.013 16.866c-.46-.002-.872-.28-1.046-.706a1.14 1.14 0 0 1 .251-1.238l9.63-9.644c.213-.215.503-.336.806-.336a1.13 1.13 0 0 1 .806.336 1.14 1.14 0 0 1 0 1.604l-9.64 9.655a1.13 1.13 0 0 1-.806.33zm5.62.807a1.14 1.14 0 0 1-.795-1.944l4.815-4.822c.45-.386 1.122-.36 1.542.06a1.14 1.14 0 0 1 .06 1.544l-4.815 4.822a1.13 1.13 0 0 1-.806.34z"/></g><rect fill="#fff" x="44.288" y="10.235" width="21.576" height="40.941" rx="2"/><path fill="#b9bdd4" d="M44.288 44.353h21.576v6.824H44.288z"/><path d="M63.593 52.314H46.56a3.41 3.41 0 0 1-3.407-3.412V12.5a3.41 3.41 0 0 1 3.407-3.412h17.034A3.41 3.41 0 0 1 67 12.51v36.392a3.41 3.41 0 0 1-3.407 3.412zM46.56 11.373a1.14 1.14 0 0 0-1.136 1.137v36.392c0 .628.508 1.137 1.136 1.137h17.034a1.14 1.14 0 0 0 1.136-1.137V12.5c0-.628-.508-1.137-1.136-1.137H46.56zm10.22 37.53h-3.407a1.14 1.14 0 0 1-1.136-1.137c0-.627.508-1.137 1.136-1.137h3.407a1.14 1.14 0 0 1 1.136 1.137c0 .627-.508 1.137-1.136 1.137z" fill="#191f76"/></svg>