<svg xmlns="http://www.w3.org/2000/svg" viewBox="0 0 60 54"><style><![CDATA[.F{stroke-linecap:round}.G{stroke:#191f76}.H{stroke-linejoin:round}.I{stroke-width:2}]]></style><circle cx="32" cy="25" r="24" fill="#ecedf3"/><g fill="#fff"><path d="M51 29l-6.2 4A3 3 0 0 0 42 31h-6c-1.38 0-3.47-2-5.12-2H25c-2.42 0-4.78 1.87-6 3l-6 6c3 2.6 8.63 8.18 10 9.4 1.86-1.85 2.6-3.4 4.12-3.4H42c1.4-.78 10-8 10-8s5.84-6.3 7-9c-.73-1-5.25-2.44-8 2z"/><path d="M32 37h10a3 3 0 1 0 0-6h-6c-1.38 0-3.47-2-5.12-2H25c-2.42 0-4.78 1.87-6 3l-6 6c3 2.6 8.63 8.18 10 9.4 1.86-1.85 2.6-3.4 4.12-3.4H42c1.4-.78 10-8 10-8s5.84-6.3 7-9c-.73-1-5.25-2.44-8 2l-6.25 4" class="F G H I"/></g><path d="M6.998 39.003L13 33l14 14L21 53.003z" fill="#b9bdd4" class="G H I"/><path d="M12 38l2 2m-.08-34.15H9.88m1.62 3.23H1m4.04-3.23h1.6" fill="none" class="F G H I"/><path d="M14.73 1h36.35v21H14.73z" fill="#fff"/><g class="G H I"><path d="M14.73 14.73V1h36.35v21H14.73v-4" fill="none" class="F"/><path d="M44.62 18H21.2a2.42 2.42 0 0 0-2.42-2.42V7.46A2.42 2.42 0 0 0 21.19 5h23.43A2.42 2.42 0 0 0 47 7.46v8.08A2.42 2.42 0 0 0 44.62 18z" fill="#b9bdd4"/><path d="M23.62 11.5h1.6m15.36 0h1.6" fill="none" class="F"/><path d="M29.27 11.5a3.86 3.86 0 0 1 3.64-4 3.86 3.86 0 0 1 3.63 4 3.86 3.86 0 0 1-3.64 4 3.85 3.85 0 0 1-3.63-4z" fill="#fff"/><path d="M16.35 14.73H5.85" fill="none" class="F"/></g></svg>