<svg xmlns="http://www.w3.org/2000/svg" xmlns:xlink="https://www.w3.org/1999/xlink" width="72" height="58"><style><![CDATA[.B{fill-rule:nonzero}.C{stroke:#191f76}.D{stroke-width:2}.E{stroke-linejoin:round}.F{stroke-linecap:round}]]></style><g fill="none" fill-rule="evenodd"><g class="B"><circle fill="#ecedf3" cx="34.793" cy="28.966" r="28.966"/><path d="M9.448 6.034h53.103c1.333 0 2.414 1.08 2.414 2.414v38.62H7.034V8.448c0-1.333 1.08-2.414 2.414-2.414z" fill="#fff"/></g><g class="C D E"><path d="M25.138 6.034h37.62c1.333 0 2.414 1.08 2.414 2.414v37.414M45.86 6.034H8.24c-1.333 0-2.414 1.08-2.414 2.414v37.414" class="F"/><path d="M71 45.862H44.448L43.24 47.07H28.76l-1.207-1.207H1v2.414a3.62 3.62 0 0 0 3.621 3.621h62.76A3.62 3.62 0 0 0 71 48.276v-2.414z" fill="#b9bdd4" class="B"/></g><path fill="#b9bdd4" d="M28.76 13.276H43.24v26.552H28.76z" class="B"/><g class="C D"><use xlink:href="#B"/><use xlink:href="#B" x="14.483"/></g><path d="M50.483 32.586H48.07a13.95 13.95 0 0 1 2.812-8.279c-.504-.11-1.017-.165-1.533-.17-.347.047-.664.218-.893.483a2.5 2.5 0 0 1-1.593.724h-1.207v-3.62h2.414v.278a3.2 3.2 0 0 1 1.134-.278 9.33 9.33 0 0 1 2.1.205c.69.234 1.436.234 2.124 0l1.352 2.003a10.62 10.62 0 0 0-4.297 8.653z" fill="#191f76" class="B"/><g class="C E F"><path d="M28.76 18.103v18.103m14.48-18.103v18.103"/><g class="D"><path d="M45.655 39.828h-31.38V13.276h43.448v16.897"/><path d="M45.655 13.276h-31.38v26.552h43.448V22.93"/></g></g></g><defs ><path id="B" d="M17.897 21.724v2.414c.664 0 1.134-1.134 2.414-1.207 1.58-.097 3.488.893 4.828 0-3.073 2.25-4.87 5.846-4.828 9.655"/></defs></svg>