<svg xmlns="http://www.w3.org/2000/svg" width="58" height="53" fill-rule="nonzero"><ellipse fill="#ecedf3" cx="28.508" cy="26.068" rx="23.593" ry="23.556"/><g fill="#191f76"><path d="M57.017 38.984H45.063c-.543 0-.983-.44-.983-.98v-2.218a.98.98 0 0 1 .295-.697l4.394-4.054c3.785-3.474 5.358-4.907 6.193-6.586.706-1.604.8-3.412.236-5.074a3.31 3.31 0 0 0-2.094-1.963c-1.495-.562-3.163-.426-4.547.37a5.33 5.33 0 0 0-2.6 3.742.99.99 0 0 1-1.098.51.98.98 0 0 1-.76-.94c.387-2.097 1.682-3.916 3.538-4.97s4.084-1.236 6.086-.497c1.494.467 2.702 1.575 3.293 3.023.757 2.17.652 4.55-.295 6.645-.983 1.963-2.635 3.484-6.616 7.135l-4.07 3.76v.883H56.1v-2.63c.116-.427.505-.724.95-.724s.832.297.95.724v3.592a.98.98 0 0 1-.983.952zm-15.542-5.987c-.25.004-.493-.095-.668-.275L32.44 24.35a.98.98 0 0 1 0-1.345c.378-.355.968-.355 1.347 0l8.356 8.4a.98.98 0 0 1 0 1.345.92.92 0 0 1-.668.245z"/><path d="M33.1 32.997c-.253-.001-.496-.1-.678-.275a.98.98 0 0 1 .029-1.315l8.395-8.372c.377-.35.96-.35 1.337 0a.98.98 0 0 1 0 1.345l-8.385 8.372a.98.98 0 0 1-.698.245zm14.382 7.883c-.417-.308-1.003-.24-1.337.157-1.705 2.158-3.762 4.013-6.085 5.486L36.796 40.9a17.76 17.76 0 0 0 4.915-4.701.98.98 0 0 0 .295-1.088c-.14-.388-.5-.647-.924-.648s-.783.258-.925.646a15.72 15.72 0 0 1-4.532 4.309c-.35.24-.714.456-1.1.648a15.81 15.81 0 0 1-7.363 1.816 15.65 15.65 0 0 1-7.324-1.816 10.25 10.25 0 0 1-1.17-.658 15.77 15.77 0 0 1-4.915-4.907l-.64-1.12a15.76 15.76 0 0 1 0-14.663l.64-1.1a16.05 16.05 0 0 1 4.915-4.907l1.1-.638a15.64 15.64 0 0 1 7.324-1.806 15.75 15.75 0 0 1 7.373 1.826l1.072.628a15.74 15.74 0 0 1 5.27 5.447c.275.443.85.594 1.307.344a.98.98 0 0 0 .334-1.296 17.59 17.59 0 0 0-5.682-5.967l3.254-5.634a24.21 24.21 0 0 1 6.085 5.477c.334.397.92.465 1.337.157a.98.98 0 0 0 .157-1.325C42.678 3.637 35.118-.02 27.122 0a26.02 26.02 0 0 0-12.986 3.465c-3.96 2.283-7.26 5.553-9.575 9.5v.137A25.79 25.79 0 0 0 .983 25.931c-.005.046-.005.092 0 .137a.72.72 0 0 0 0 .147 25.91 25.91 0 0 0 3.49 12.818v.128a26.39 26.39 0 0 0 9.467 9.432c3.934 2.265 8.396 3.456 12.937 3.455a26 26 0 0 0 20.752-9.844.98.98 0 0 0-.157-1.325z"/></g><path d="M35.134 41.84l3.264 5.624c-3.2 1.68-6.738 2.62-10.352 2.748v-6.478a17.46 17.46 0 0 0 7.088-1.894z" fill="#fff"/><path d="M26.15 43.735v6.488a24.17 24.17 0 0 1-10.302-2.768l3.244-5.604a17.45 17.45 0 0 0 7.058 1.884zm-14.825-9.658l-5.633 3.22c-1.667-3.18-2.604-6.7-2.743-10.276h6.46c.137 2.46.8 4.865 1.917 7.057z" fill="#b9bdd4"/><path d="M9.408 25.126H2.95c.133-3.593 1.07-7.1 2.743-10.296l5.633 3.23c-1.126 2.196-1.78 4.603-1.917 7.067zM26.15 8.4a17.62 17.62 0 0 0-7.058 1.894L15.847 4.7a24.03 24.03 0 0 1 10.302-2.73V8.4z" fill="#fff"/><path d="M38.398 4.672l-3.264 5.644a17.6 17.6 0 0 0-7.088-1.914v-6.44c3.613.132 7.15 1.07 10.352 2.748v-.04zm-24.193.972l3.244 5.604a17.68 17.68 0 0 0-5.181 5.172l-5.613-3.24a24.33 24.33 0 0 1 7.55-7.538z" fill="#b9bdd4"/><path d="M6.655 38.965l5.613-3.25c1.344 2.068 3.11 3.83 5.18 5.172l-3.244 5.614a24.47 24.47 0 0 1-7.55-7.538z" fill="#fff"/></svg>